<svg xmlns="http://www.w3.org/2000/svg" viewBox="0 0 1719.28 980.57"><defs><style>.a{isolation:isolate;}.b,.h{fill:#974444;}.b{opacity:0.6;}.c,.e{fill:#c36055;}.c,.g{stroke:#bc5d53;}.c,.f,.g{stroke-miterlimit:10;}.d{opacity:0.5;mix-blend-mode:multiply;}.f,.g{fill:none;}.f{stroke:#000;}</style></defs><title>tjmooc-404</title><g class="a"><polygon class="b" points="1606.22 671.44 1124 546.05 1719.22 474.44 1003.64 514.85 0.72 254.94 815.61 525.47 564.22 538.44 685.22 598.44 943.13 567.81 1549.22 768.44 1606.22 671.44"/><line class="c" x1="0.22" y1="255.44" x2="1431.72" y2="972.94"/><line class="c" x1="684.72" y1="598.94" x2="1719.22" y2="474.44"/><line class="c" x1="1719.22" y1="474.44" x2="564.72" y2="538.94"/><line class="c" x1="1549.72" y1="768.94" x2="0.22" y2="255.44"/><line class="c" x1="1605.72" y1="670.94" x2="0.22" y2="255.44"/><g class="d"><polygon points="565.17 92.01 564.9 539 684.78 598.88 684.6 151.66 565.17 92.01"/></g><polygon class="e" points="565.17 92.01 564.9 539 684.78 598.88 684.6 151.66 565.17 92.01"/><g class="d"><polygon points="501.22 0 501.64 421.69 375.04 379.59 501.22 0"/></g><polygon class="e" points="501.22 0 501.64 421.69 375.04 379.59 501.22 0"/><g class="d"><polygon points="1006.17 313.01 1005.9 760 1125.78 819.88 1125.6 372.66 1006.17 313.01"/><polygon class="f" points="1006.17 313.01 1005.9 760 1125.78 819.88 1125.6 372.66 1006.17 313.01"/></g><polygon class="e" points="1006.17 313.01 1005.9 760 1125.78 819.88 1125.6 372.66 1006.17 313.01"/><polygon class="g" points="1006.17 313.01 1005.9 760 1125.78 819.88 1125.6 372.66 1006.17 313.01"/><g class="d"><polygon points="942.64 567.69 942.22 145.44 815.84 104.01 816.04 525.59 942.64 567.69"/></g><polygon class="e" points="942.64 567.69 942.22 145.44 815.84 104.01 816.04 525.59 942.64 567.69"/><polygon class="h" points="942.22 145.44 815.22 103.44 684.22 151.44 942.22 145.44"/><path class="h" d="M565.22,540.44"/><path d="M7.12,806.58H5.36q0-1.32,0-4.71t0-9.71q0-2.5,0-6.57t0-8.44H7.12q0,3.15,0,7.31c0,2.78,0,5,0,6.8,0,4.46,0,7.9,0,10.34S7.12,805.7,7.12,806.58Z"/><path d="M45.66,806.58H44c0-.59,0-1.89,0-3.91s0-3.78,0-5.26,0-2.73,0-3.85,0-1.89,0-2.3c0-2.11-.43-3.62-1.19-4.52A4.64,4.64,0,0,0,39,785.37a9.7,9.7,0,0,0-3.36.82,36.05,36.05,0,0,0-5,2.57l0,17.82H29c0-.69,0-2.28,0-4.77s0-6.67,0-12.53q0-2.89,0-7.14c0-2.82,0-5.42,0-7.78h1.69l0,12.92.06,0a40.57,40.57,0,0,1,4.9-2.52,10.43,10.43,0,0,1,4-.89,5.69,5.69,0,0,1,4.57,1.8,7.12,7.12,0,0,1,1.54,4.77c0,1.7,0,3.12,0,4.27s0,2.12,0,2.92,0,2.37,0,4.51S45.66,805.79,45.66,806.58Z"/><path d="M68,793.87v12.71c-.49,0-1.32.06-2.5.14s-2.28.12-3.3.12a24.87,24.87,0,0,1-3.49-.26,10.75,10.75,0,0,1-3.13-.93A6.27,6.27,0,0,1,53,803.43a5.49,5.49,0,0,1-.88-3.07,5,5,0,0,1,1.18-3.29,8.94,8.94,0,0,1,3.61-2.38,20.58,20.58,0,0,1,3.24-1q1.68-.36,6.27-.82a8.9,8.9,0,0,0-.91-3.75,5.94,5.94,0,0,0-2.32-2.29,8.39,8.39,0,0,0-2.28-.85,13.94,13.94,0,0,0-3.07-.3c-.68,0-1.28,0-1.8,0l-1.46,0,.17-1.47,1-.05,1.94,0a16.75,16.75,0,0,1,4.62.58,8,8,0,0,1,3.24,1.75,7.45,7.45,0,0,1,1.88,2.79A12.82,12.82,0,0,1,68,793.87Zm-1.63,6.06v-5.68c-1.26.09-2.76.27-4.51.54a20.75,20.75,0,0,0-4.34,1.08,6.68,6.68,0,0,0-2.87,1.92,3.89,3.89,0,0,0-.91,2.47,4.27,4.27,0,0,0,.91,2.8,6.36,6.36,0,0,0,2.76,1.78,10.36,10.36,0,0,0,2.52.53c1,.1,2.16.15,3.47.15l1.2,0c.54,0,1.12-.06,1.75-.12,0-.26,0-1,0-2S66.4,801.08,66.4,799.93Z"/><path d="M92.66,784.7q-3.1,7.2-5.8,14t-3.17,7.92H82q-.33-.9-2.87-7.22T73,784.75l1.57-.63,8.32,20.54h0l8.24-20.54Z"/><path d="M113.9,794.23H97.69a14.24,14.24,0,0,0,.83,5.18,9.71,9.71,0,0,0,6.36,5.34,15.25,15.25,0,0,0,4,.51l1.64,0,1.37-.06-.27,1.39c-.16,0-.45,0-.86,0s-1.09,0-2,0a15.89,15.89,0,0,1-5.47-.88,10.72,10.72,0,0,1-4.08-2.57,11.21,11.21,0,0,1-2.33-3.62,11.61,11.61,0,0,1-.86-4.4,14.22,14.22,0,0,1,.62-4.49A11.3,11.3,0,0,1,98.81,787a8.54,8.54,0,0,1,6.72-3.12,8.49,8.49,0,0,1,3.31.61,7.21,7.21,0,0,1,2.54,1.76,9.2,9.2,0,0,1,1.84,3.33A15.14,15.14,0,0,1,113.9,794.23ZM112.28,793c-.24-2.66-1-4.61-2.14-5.87a6.13,6.13,0,0,0-4.65-1.89,6.93,6.93,0,0,0-5,2A10.38,10.38,0,0,0,97.75,793Z"/><path d="M147.61,806.93h-1.76a31.7,31.7,0,0,1-5.43-.42A15.06,15.06,0,0,1,136,805a11.11,11.11,0,0,1-4.18-3.67,9,9,0,0,1-1.51-5.12,10.74,10.74,0,0,1,1.62-5.89,11.05,11.05,0,0,1,4.51-4,16.8,16.8,0,0,1,4.16-1.35,27.11,27.11,0,0,1,5.4-.5l0-10.13h1.69q0,.45,0,6.16t0,11.58q0,4.64,0,8.38T147.61,806.93ZM146,791.47v-5.66a26.87,26.87,0,0,0-4.52.35,15.76,15.76,0,0,0-3.63,1.08,10,10,0,0,0-4.29,3.47,9.33,9.33,0,0,0-1.58,5.44,8,8,0,0,0,1.32,4.54,10,10,0,0,0,3.8,3.29,13.15,13.15,0,0,0,4,1.3,26.94,26.94,0,0,0,4.32.35h.53c0-.13,0-1.47,0-4S146,795.67,146,791.47Z"/><path d="M158.4,778.47h-2V776.3h2Zm-.16,28.11h-1.69c0-.52,0-1.65,0-3.42s0-4.23,0-7.39c0-1.59,0-3.38,0-5.38s0-4,0-6h1.69c0,2.3,0,4.26,0,5.86s0,3.37,0,5.31,0,4.28,0,6.7S158.24,806.11,158.24,806.58Z"/><path d="M177.86,800.56a5.06,5.06,0,0,1-.67,2.6,6.19,6.19,0,0,1-2,2,8.27,8.27,0,0,1-2.82,1.12,17.52,17.52,0,0,1-3.8.38c-.5,0-1.08,0-1.76-.06s-1.15-.07-1.45-.1l0-1.45c.31,0,.77.07,1.39.1s1.3.06,2.06.06a18.65,18.65,0,0,0,2.81-.23,6.85,6.85,0,0,0,2.11-.59,5.68,5.68,0,0,0,1.84-1.47,3.67,3.67,0,0,0,.05-4.1,5.5,5.5,0,0,0-1.71-1.59,19.75,19.75,0,0,0-2.42-1.24,27.85,27.85,0,0,1-2.61-1.33,6.54,6.54,0,0,1-2.15-2,5.06,5.06,0,0,1-.07-5.35,6.08,6.08,0,0,1,2.19-2,8.29,8.29,0,0,1,2.3-.8,15.88,15.88,0,0,1,3.26-.3c.77,0,1.4,0,1.92,0l1,.05.09,1.41c-.31,0-.76,0-1.33,0s-1.22,0-1.93,0a14.48,14.48,0,0,0-2.62.21,6.14,6.14,0,0,0-2,.72,4.21,4.21,0,0,0-1.49,1.4,3.47,3.47,0,0,0-.49,1.8,3.53,3.53,0,0,0,.57,1.95,5.61,5.61,0,0,0,1.94,1.68,24,24,0,0,0,2.23,1.12c.9.41,1.7.82,2.42,1.23a6.63,6.63,0,0,1,2.4,2.14A4.91,4.91,0,0,1,177.86,800.56Z"/><path d="M198.3,805.26l-.16,1.4h-1.21a22.33,22.33,0,0,1-5-.52,14.17,14.17,0,0,1-4.13-1.61,10.4,10.4,0,0,1-5.28-9.18,9.56,9.56,0,0,1,1.28-4.85,11,11,0,0,1,3.32-3.61A13.86,13.86,0,0,1,191.6,785a20.88,20.88,0,0,1,5.33-.68h.91l.08,1.41h-.63a21.26,21.26,0,0,0-4,.35,16.32,16.32,0,0,0-3.28,1,9.17,9.17,0,0,0-4.12,3.32,8.46,8.46,0,0,0-1.62,4.95,8.73,8.73,0,0,0,1.43,5,9.47,9.47,0,0,0,3.5,3.21,15.49,15.49,0,0,0,4,1.41,20.89,20.89,0,0,0,3.84.37h1.3Z"/><path d="M222.8,795.48a14,14,0,0,1-.81,4.92,10.91,10.91,0,0,1-2.47,3.89,9.15,9.15,0,0,1-3.09,2.09,9.76,9.76,0,0,1-3.65.66,10,10,0,0,1-3.71-.67,8.89,8.89,0,0,1-3.08-2.08,10.68,10.68,0,0,1-2.44-3.84,13.89,13.89,0,0,1-.84-5,14.29,14.29,0,0,1,.73-4.76,10.62,10.62,0,0,1,2.22-3.74,8.93,8.93,0,0,1,3.26-2.37,9.94,9.94,0,0,1,3.86-.73,9.73,9.73,0,0,1,3.83.75,8.86,8.86,0,0,1,3.13,2.24,10.88,10.88,0,0,1,2.33,3.88A14.55,14.55,0,0,1,222.8,795.48Zm-1.67,0a12.64,12.64,0,0,0-.81-4.76,10.23,10.23,0,0,0-2.27-3.48,6.56,6.56,0,0,0-2.42-1.55,8,8,0,0,0-2.83-.51,8.52,8.52,0,0,0-3.05.51,7,7,0,0,0-2.6,1.86,10.12,10.12,0,0,0-2.08,3.43,13.3,13.3,0,0,0-.69,4.48,12.69,12.69,0,0,0,.86,4.89,9.79,9.79,0,0,0,2.48,3.53,6.61,6.61,0,0,0,2.25,1.33,8.41,8.41,0,0,0,2.78.47,8.24,8.24,0,0,0,2.92-.54,6.6,6.6,0,0,0,2.49-1.64,10,10,0,0,0,2.22-3.5A12.75,12.75,0,0,0,221.13,795.52Z"/><path d="M245.87,784.7q-3.1,7.2-5.81,14t-3.16,7.92h-1.73c-.23-.6-1.18-3-2.87-7.22s-3.73-9.09-6.1-14.61l1.57-.63,8.32,20.54h0l8.24-20.54Z"/><path d="M267.11,794.23H250.9a14.24,14.24,0,0,0,.83,5.18,9.12,9.12,0,0,0,3.21,3.87,9,9,0,0,0,3.15,1.47,15.23,15.23,0,0,0,4,.51l1.65,0,1.37-.06-.27,1.39c-.16,0-.45,0-.87,0s-1.08,0-2,0a15.85,15.85,0,0,1-5.47-.88,10.84,10.84,0,0,1-4.09-2.57,11.19,11.19,0,0,1-2.32-3.62,11.42,11.42,0,0,1-.86-4.4,14.25,14.25,0,0,1,.61-4.49A11.34,11.34,0,0,1,252,787a8.54,8.54,0,0,1,6.72-3.12,8.49,8.49,0,0,1,3.31.61,7.21,7.21,0,0,1,2.54,1.76,9.2,9.2,0,0,1,1.84,3.33A15.14,15.14,0,0,1,267.11,794.23ZM265.49,793c-.24-2.66-.95-4.61-2.14-5.87a6.13,6.13,0,0,0-4.65-1.89,6.91,6.91,0,0,0-5,2A10.31,10.31,0,0,0,251,793Z"/><path d="M285,785.31a38.35,38.35,0,0,0-4.07,1.49,41.41,41.41,0,0,0-5.79,3c0,.16,0,1,0,2.62s0,3,0,4.08c0,1.73,0,3.78,0,6.15s0,3.69,0,4h-1.69c0-.25,0-1.07,0-2.46s0-3.78,0-7.14c0-1.37,0-3.26,0-5.7s0-4.73,0-6.9h1.69l0,3.74,0,0a35.72,35.72,0,0,1,5.19-2.66,42.82,42.82,0,0,1,4.28-1.62Z"/><path d="M305.87,794.23H289.65a14,14,0,0,0,.84,5.18,9.12,9.12,0,0,0,3.21,3.87,9,9,0,0,0,3.15,1.47,15.18,15.18,0,0,0,4,.51l1.65,0,1.36-.06-.26,1.39c-.16,0-.45,0-.87,0s-1.09,0-2,0a15.81,15.81,0,0,1-5.47-.88,10.84,10.84,0,0,1-4.09-2.57,11.21,11.21,0,0,1-2.33-3.62,11.6,11.6,0,0,1-.85-4.4,14.25,14.25,0,0,1,.61-4.49,11.48,11.48,0,0,1,2.15-3.66,8.54,8.54,0,0,1,6.73-3.12,8.49,8.49,0,0,1,3.31.61,7.09,7.09,0,0,1,2.53,1.76,9.22,9.22,0,0,1,1.85,3.33A15.14,15.14,0,0,1,305.87,794.23ZM304.24,793c-.23-2.66-.94-4.61-2.14-5.87a6.1,6.1,0,0,0-4.65-1.89,6.91,6.91,0,0,0-5,2,10.31,10.31,0,0,0-2.77,5.79Z"/><path d="M327.43,806.93h-1.76a31.7,31.7,0,0,1-5.43-.42,15,15,0,0,1-4.46-1.51,11.14,11.14,0,0,1-4.19-3.67,9.07,9.07,0,0,1-1.5-5.12,10.82,10.82,0,0,1,1.61-5.89,11.08,11.08,0,0,1,4.52-4,16.85,16.85,0,0,1,4.15-1.35,27.29,27.29,0,0,1,5.41-.5l0-10.13h1.7q0,.45,0,6.16t0,11.58q0,4.64,0,8.38T327.43,806.93Zm-1.65-15.46v-5.66a26.87,26.87,0,0,0-4.52.35,16,16,0,0,0-3.64,1.08,9.93,9.93,0,0,0-4.28,3.47,9.33,9.33,0,0,0-1.58,5.44,8,8,0,0,0,1.32,4.54,9.87,9.87,0,0,0,3.8,3.29,13.06,13.06,0,0,0,4,1.3,26.76,26.76,0,0,0,4.32.35h.53c0-.13,0-1.47,0-4S325.78,795.67,325.78,791.47Z"/><path d="M18.15,875.87v12.71c-.48,0-1.31.06-2.49.14s-2.28.12-3.31.12a24.62,24.62,0,0,1-3.48-.26,10.57,10.57,0,0,1-3.13-.93,6.36,6.36,0,0,1-2.64-2.22,5.57,5.57,0,0,1-.88-3.07,5,5,0,0,1,1.19-3.29A8.9,8.9,0,0,1,7,876.69a20.58,20.58,0,0,1,3.24-1q1.68-.36,6.28-.82a8.9,8.9,0,0,0-.92-3.75,5.88,5.88,0,0,0-2.32-2.29A8.39,8.39,0,0,0,11,868a13.88,13.88,0,0,0-3.07-.3c-.67,0-1.27,0-1.79,0l-1.47,0,.18-1.47,1-.05,1.94,0a16.75,16.75,0,0,1,4.62.58,7.89,7.89,0,0,1,3.23,1.75,7.22,7.22,0,0,1,1.88,2.79A12.82,12.82,0,0,1,18.15,875.87Zm-1.62,6.06v-5.68c-1.27.09-2.77.27-4.52.54a20.65,20.65,0,0,0-4.33,1.08,6.66,6.66,0,0,0-2.88,1.92,4,4,0,0,0-.91,2.47,4.32,4.32,0,0,0,.91,2.8,6.34,6.34,0,0,0,2.77,1.78,10.16,10.16,0,0,0,2.52.53c1,.1,2.16.15,3.46.15l1.2,0c.54,0,1.12-.06,1.75-.12,0-.26,0-1,0-2S16.53,883.08,16.53,881.93Z"/><path d="M49.2,887.24l-.13,1.36-.71,0c-.31,0-.59,0-.85,0-2.63,0-4.6-.64-5.93-1.92s-2-3.23-2-5.86c0-1.81,0-3.93,0-6.36s0-4.67,0-6.75H35.93v-1.32H39.7v-5.14h1.57v5.14h8.1v1.32h-8.1c0,.44,0,1.32,0,2.65s0,2.66,0,4c0,1.48,0,2.64,0,3.47s0,1.66,0,2.47q0,3.61,1.46,5.28c1,1.11,2.73,1.66,5.27,1.66H49.2Z"/><path d="M66.88,867.31a38.35,38.35,0,0,0-4.07,1.49,42,42,0,0,0-5.79,3c0,.16,0,1,0,2.62s0,3,0,4.08c0,1.73,0,3.78,0,6.15s0,3.69,0,4H55.35c0-.25,0-1.07,0-2.46s0-3.78,0-7.14c0-1.37,0-3.26,0-5.7s0-4.73,0-6.9H57l0,3.74,0,0a35.72,35.72,0,0,1,5.19-2.66,42.82,42.82,0,0,1,4.28-1.62Z"/><path d="M88.55,888.58H86.9v-2.93l0,0a27.14,27.14,0,0,1-4,2.13A12.26,12.26,0,0,1,77.78,889a5.72,5.72,0,0,1-4.26-1.69q-1.65-1.7-1.65-5.23c0-1.17,0-2.54,0-4.1s0-2.71,0-3.44c0-1.33,0-3,0-4.91s0-3,0-3.29h1.69c0,.19,0,1.24,0,3.15s0,3.42,0,4.57,0,2.34,0,4,0,2.79,0,3.42a8,8,0,0,0,1.08,4.59,4.24,4.24,0,0,0,3.71,1.52A11.72,11.72,0,0,0,83,886.35a21.29,21.29,0,0,0,3.88-2.15c0-.17,0-1.15,0-2.93s0-3.75,0-5.9c0-1.54,0-3.37,0-5.49s0-3.29,0-3.5h1.69c0,.25,0,1.07,0,2.45s0,3.77,0,7.13c0,1.89,0,3.55,0,5S88.55,884.91,88.55,888.58Z"/><path d="M99.18,888.58H97.49q0-.27,0-6.43c0-4.11,0-7.52,0-10.23,0-1.74,0-3.94,0-6.6s0-5.64,0-9h1.69c0,2.26,0,4.87,0,7.84s0,5.47,0,7.5q0,6.66,0,11.65C99.18,886.67,99.18,888.42,99.18,888.58Z"/><path d="M124.49,866.71q-4,9.45-8.08,19.67t-4.77,12.24l-1.49-.59,3.77-9.1c-.12-.34-1.06-2.73-2.84-7.19s-3.86-9.44-6.25-15l1.57-.64,5.35,13.23q2.85,7,3,7.34h0l2.81-7q2.7-6.76,5.43-13.55Z"/><path d="M172,888.58h-1.69c0-.5,0-1.43,0-2.78s0-3.5,0-6.43c0-1,0-2.16,0-3.44s0-2.16,0-2.65c0-2.18-.4-3.71-1.09-4.59a4.28,4.28,0,0,0-3.55-1.32,9.13,9.13,0,0,0-3.12.7,29.54,29.54,0,0,0-4.83,2.49l.06.82c0,.42.05.79.05,1.11v7.56c0,.72,0,2.09,0,4.12s0,3.5,0,4.41h-1.69c0-.57,0-1.81,0-3.71s0-3.58,0-5.06,0-2.83,0-4,0-2,0-2.48a11.82,11.82,0,0,0-.29-2.72,4.89,4.89,0,0,0-.81-1.89,3.06,3.06,0,0,0-1.3-.94,5.44,5.44,0,0,0-2.15-.36,8.74,8.74,0,0,0-3.3.83,31.62,31.62,0,0,0-4.63,2.58V878c0,1.59,0,3.56,0,5.91s0,3.9,0,4.68h-1.69c0-.52,0-1.51,0-3s0-4.18,0-8.09c0-1.58,0-3.32,0-5.23s0-3.86,0-5.89h1.67l0,2.9.06.05a34.78,34.78,0,0,1,4.66-2.55,9.43,9.43,0,0,1,3.71-.88,5.59,5.59,0,0,1,3.4,1,5.14,5.14,0,0,1,1.86,2.37h.08a27.44,27.44,0,0,1,4.63-2.39,11.21,11.21,0,0,1,4.08-1,5.26,5.26,0,0,1,4.37,1.78,7.49,7.49,0,0,1,1.43,4.81c0,1.72,0,3.13,0,4.24s0,2.08,0,2.88,0,2.38,0,4.54S172,887.79,172,888.58Z"/><path d="M194.32,875.87v12.71c-.48,0-1.31.06-2.49.14s-2.28.12-3.31.12a24.62,24.62,0,0,1-3.48-.26,10.57,10.57,0,0,1-3.13-.93,6.24,6.24,0,0,1-2.64-2.22,5.49,5.49,0,0,1-.88-3.07,5,5,0,0,1,1.19-3.29,8.9,8.9,0,0,1,3.6-2.38,20.58,20.58,0,0,1,3.24-1q1.68-.36,6.27-.82a8.75,8.75,0,0,0-.91-3.75,5.88,5.88,0,0,0-2.32-2.29,8.39,8.39,0,0,0-2.28-.85,13.88,13.88,0,0,0-3.07-.3c-.68,0-1.27,0-1.79,0l-1.47,0,.18-1.47,1-.05,1.93,0a16.83,16.83,0,0,1,4.63.58,7.89,7.89,0,0,1,3.23,1.75,7.33,7.33,0,0,1,1.88,2.79A12.82,12.82,0,0,1,194.32,875.87Zm-1.63,6.06v-5.68c-1.26.09-2.76.27-4.51.54a20.65,20.65,0,0,0-4.33,1.08,6.66,6.66,0,0,0-2.88,1.92,3.89,3.89,0,0,0-.91,2.47,4.27,4.27,0,0,0,.91,2.8,6.34,6.34,0,0,0,2.77,1.78,10.16,10.16,0,0,0,2.52.53c1,.1,2.16.15,3.46.15l1.2,0c.54,0,1.12-.06,1.75-.12,0-.26,0-1,0-2S192.69,883.08,192.69,881.93Z"/><path d="M214.12,867.31A37.52,37.52,0,0,0,210,868.8a42,42,0,0,0-5.79,3c0,.16,0,1,0,2.62s0,3,0,4.08q0,2.6,0,6.15c0,2.37,0,3.69,0,4h-1.69c0-.25,0-1.07,0-2.46s0-3.78,0-7.14c0-1.37,0-3.26,0-5.7s0-4.73,0-6.9h1.69l0,3.74,0,0a35.72,35.72,0,0,1,5.19-2.66,43.78,43.78,0,0,1,4.28-1.62Z"/><path d="M235.56,866.7q-3.09,7.2-5.8,14l-3.16,7.92h-1.74q-.33-.9-2.87-7.22t-6.09-14.61l1.57-.63,8.31,20.54h.05l8.24-20.54Z"/><path d="M256.81,876.23H240.59a14,14,0,0,0,.84,5.18,9.71,9.71,0,0,0,6.36,5.34,15.18,15.18,0,0,0,4,.51l1.65,0,1.36-.06-.26,1.39c-.16,0-.45,0-.87,0s-1.09,0-2,0a15.81,15.81,0,0,1-5.47-.88,10.76,10.76,0,0,1-4.09-2.57,11.21,11.21,0,0,1-2.33-3.62,11.61,11.61,0,0,1-.86-4.4,14.22,14.22,0,0,1,.62-4.49,11.48,11.48,0,0,1,2.15-3.66,8.54,8.54,0,0,1,6.73-3.12,8.41,8.41,0,0,1,3.3.61,7.12,7.12,0,0,1,2.54,1.76,9.22,9.22,0,0,1,1.85,3.33A15.46,15.46,0,0,1,256.81,876.23ZM255.18,875c-.23-2.66-1-4.61-2.14-5.87a6.1,6.1,0,0,0-4.65-1.89,6.89,6.89,0,0,0-5,2,10.31,10.31,0,0,0-2.77,5.79Z"/><path d="M265,888.58h-1.69q0-.27,0-6.43t0-10.23q0-2.61,0-6.6c0-2.66,0-5.64,0-9H265c0,2.26,0,4.87,0,7.84s0,5.47,0,7.5q0,6.66,0,11.65C265,886.67,265,888.42,265,888.58Z"/><path d="M292,877.48a14.26,14.26,0,0,1-.8,4.92,11.05,11.05,0,0,1-2.47,3.89,9.34,9.34,0,0,1-3.09,2.09,10.51,10.51,0,0,1-7.36,0,8.83,8.83,0,0,1-3.09-2.08,10.82,10.82,0,0,1-2.44-3.84,13.9,13.9,0,0,1-.83-5,14.56,14.56,0,0,1,.72-4.76,10.62,10.62,0,0,1,2.22-3.74,9,9,0,0,1,3.26-2.37,10,10,0,0,1,3.86-.73,9.69,9.69,0,0,1,3.83.75,8.78,8.78,0,0,1,3.13,2.24,10.88,10.88,0,0,1,2.33,3.88A14.28,14.28,0,0,1,292,877.48Zm-1.67,0a12.85,12.85,0,0,0-.8-4.76,10.41,10.41,0,0,0-2.28-3.48,6.6,6.6,0,0,0-2.41-1.55,8.06,8.06,0,0,0-2.84-.51,8.42,8.42,0,0,0-3,.51,7,7,0,0,0-2.61,1.86,9.94,9.94,0,0,0-2.07,3.43,13.3,13.3,0,0,0-.69,4.48,12.69,12.69,0,0,0,.85,4.89,9.7,9.7,0,0,0,2.49,3.53,6.43,6.43,0,0,0,2.25,1.33,8.32,8.32,0,0,0,2.78.47,8.23,8.23,0,0,0,2.91-.54,6.52,6.52,0,0,0,2.49-1.64,10,10,0,0,0,2.22-3.5A12.75,12.75,0,0,0,290.36,877.52Z"/><path d="M315.32,888.58h-1.65v-2.93l0,0a27.69,27.69,0,0,1-4,2.13,12.26,12.26,0,0,1-5.14,1.28,5.72,5.72,0,0,1-4.26-1.69q-1.65-1.7-1.65-5.23c0-1.17,0-2.54,0-4.1s0-2.71,0-3.44c0-1.33,0-3,0-4.91s0-3,0-3.29h1.69c0,.19,0,1.24,0,3.15s0,3.42,0,4.57,0,2.34,0,4,0,2.79,0,3.42a8,8,0,0,0,1.08,4.59,4.24,4.24,0,0,0,3.71,1.52,11.72,11.72,0,0,0,4.67-1.28,21.29,21.29,0,0,0,3.88-2.15c0-.17,0-1.15,0-2.93s0-3.75,0-5.9c0-1.54,0-3.37,0-5.49s0-3.29,0-3.5h1.69c0,.25,0,1.07,0,2.45s0,3.77,0,7.13q0,2.84,0,5C315.31,882.37,315.32,884.91,315.32,888.58Z"/><path d="M334.72,882.56a5.06,5.06,0,0,1-.67,2.6,6.22,6.22,0,0,1-2,2,8.13,8.13,0,0,1-2.81,1.12,17.58,17.58,0,0,1-3.8.38c-.5,0-1.08,0-1.76-.06s-1.16-.07-1.45-.1l0-1.45c.3,0,.77.07,1.38.1s1.31.06,2.07.06a18.65,18.65,0,0,0,2.81-.23,6.94,6.94,0,0,0,2.11-.59,5.53,5.53,0,0,0,1.83-1.47,3.44,3.44,0,0,0,.65-2.17,3.47,3.47,0,0,0-.59-1.93,5.73,5.73,0,0,0-1.71-1.59,20.53,20.53,0,0,0-2.42-1.24,27,27,0,0,1-2.62-1.33,6.51,6.51,0,0,1-2.14-2,5.09,5.09,0,0,1-.08-5.35,6.2,6.2,0,0,1,2.2-2,8.18,8.18,0,0,1,2.3-.8,15.81,15.81,0,0,1,3.26-.3c.76,0,1.4,0,1.91,0l1,.05.09,1.41c-.31,0-.75,0-1.33,0s-1.22,0-1.92,0a14.4,14.4,0,0,0-2.62.21,6.28,6.28,0,0,0-2,.72,4.26,4.26,0,0,0-1.48,1.4,3.38,3.38,0,0,0-.49,1.8,3.53,3.53,0,0,0,.57,1.95,5.56,5.56,0,0,0,1.93,1.68c.59.34,1.33.71,2.23,1.12s1.71.82,2.43,1.23A6.59,6.59,0,0,1,334,880,4.83,4.83,0,0,1,334.72,882.56Z"/><path d="M371,876.8a10.32,10.32,0,0,1-5.63,9.56,17.18,17.18,0,0,1-4.61,1.58,26.65,26.65,0,0,1-5.42.55l0,10.08h-1.71c0-.71,0-2.36,0-4.93s0-6.78,0-12.62c0-1.95,0-4.12,0-6.53s0-5.15,0-8.24h2a32.46,32.46,0,0,1,5.94.51,14,14,0,0,1,4.91,1.87,9.85,9.85,0,0,1,3.34,3.43A9.41,9.41,0,0,1,371,876.8Zm-1.67.13a8.62,8.62,0,0,0-1.06-4.25,8.34,8.34,0,0,0-3.17-3.15,13.32,13.32,0,0,0-3.73-1.41,21.31,21.31,0,0,0-4.83-.51h-1.18c0,.43,0,2.11,0,5.06s0,5,0,6.11,0,2.6,0,4.22,0,3,0,4.17a25.68,25.68,0,0,0,4.75-.46,15.49,15.49,0,0,0,3.89-1.17,8.82,8.82,0,0,0,5.35-8.61Z"/><path d="M389.14,867.31a38.35,38.35,0,0,0-4.07,1.49,40.87,40.87,0,0,0-5.79,3c0,.16,0,1,0,2.62s0,3,0,4.08c0,1.73,0,3.78,0,6.15s0,3.69,0,4h-1.69c0-.25,0-1.07,0-2.46s0-3.78,0-7.14c0-1.37,0-3.26,0-5.7s0-4.73,0-6.9h1.69l0,3.74,0,0a35.72,35.72,0,0,1,5.19-2.66,42.82,42.82,0,0,1,4.28-1.62Z"/><path d="M412.28,877.48a14.26,14.26,0,0,1-.8,4.92,11.05,11.05,0,0,1-2.47,3.89,9.34,9.34,0,0,1-3.09,2.09,10.51,10.51,0,0,1-7.36,0,8.83,8.83,0,0,1-3.09-2.08,10.82,10.82,0,0,1-2.44-3.84,14.12,14.12,0,0,1-.83-5,14.56,14.56,0,0,1,.72-4.76,10.62,10.62,0,0,1,2.22-3.74,9.1,9.1,0,0,1,3.26-2.37,10,10,0,0,1,3.86-.73,9.66,9.66,0,0,1,3.83.75,8.9,8.9,0,0,1,3.14,2.24,11.17,11.17,0,0,1,2.33,3.88A14.55,14.55,0,0,1,412.28,877.48Zm-1.67,0a12.85,12.85,0,0,0-.8-4.76,10.26,10.26,0,0,0-2.28-3.48,6.6,6.6,0,0,0-2.41-1.55,8.06,8.06,0,0,0-2.84-.51,8.46,8.46,0,0,0-3,.51,6.86,6.86,0,0,0-2.6,1.86,9.82,9.82,0,0,0-2.08,3.43,13.3,13.3,0,0,0-.69,4.48,12.69,12.69,0,0,0,.85,4.89,9.82,9.82,0,0,0,2.49,3.53,6.43,6.43,0,0,0,2.25,1.33,8.37,8.37,0,0,0,2.78.47,8.23,8.23,0,0,0,2.91-.54,6.52,6.52,0,0,0,2.49-1.64,10,10,0,0,0,2.22-3.5A12.75,12.75,0,0,0,410.61,877.52Z"/><path d="M437,877.48a14.26,14.26,0,0,1-.8,4.92,10.91,10.91,0,0,1-2.47,3.89,9.15,9.15,0,0,1-3.09,2.09A9.77,9.77,0,0,1,427,889a10,10,0,0,1-3.7-.67,8.92,8.92,0,0,1-3.09-2.08,10.82,10.82,0,0,1-2.44-3.84,14.12,14.12,0,0,1-.83-5,14.56,14.56,0,0,1,.72-4.76A10.92,10.92,0,0,1,419.9,869a9,9,0,0,1,3.27-2.37,9.93,9.93,0,0,1,3.85-.73,9.74,9.74,0,0,1,3.84.75,8.86,8.86,0,0,1,3.13,2.24,11,11,0,0,1,2.33,3.88A14.55,14.55,0,0,1,437,877.48Zm-1.67,0a12.85,12.85,0,0,0-.8-4.76,10.23,10.23,0,0,0-2.27-3.48,6.64,6.64,0,0,0-2.42-1.55,8,8,0,0,0-2.84-.51,8.46,8.46,0,0,0-3,.51,7,7,0,0,0-2.6,1.86,10,10,0,0,0-2.08,3.43,13.3,13.3,0,0,0-.69,4.48,12.69,12.69,0,0,0,.86,4.89,9.79,9.79,0,0,0,2.48,3.53,6.52,6.52,0,0,0,2.25,1.33,8.37,8.37,0,0,0,2.78.47,8.23,8.23,0,0,0,2.91-.54,6.64,6.64,0,0,0,2.5-1.64,10,10,0,0,0,2.22-3.5A13,13,0,0,0,435.37,877.52Z"/><path d="M455.15,857.68h-1a8.83,8.83,0,0,0-3,.52,6,6,0,0,0-2.37,1.5,5.88,5.88,0,0,0-1.34,2.27,11.52,11.52,0,0,0-.44,3.58v.83h7.66v1.32H447q0,7.13,0,13.82t0,7.06h-1.69q0-.36,0-6.79t0-14.09h-4.33v-1.32h4.33v-1.11a13.21,13.21,0,0,1,.41-3.38,7.06,7.06,0,0,1,4.31-4.77,10.06,10.06,0,0,1,3.94-.76H455Z"/><path d="M490,877.48a14,14,0,0,1-.8,4.92,10.91,10.91,0,0,1-2.47,3.89,9.15,9.15,0,0,1-3.09,2.09A9.77,9.77,0,0,1,480,889a10,10,0,0,1-3.7-.67,9,9,0,0,1-3.09-2.08,10.66,10.66,0,0,1-2.43-3.84,13.89,13.89,0,0,1-.84-5,14.29,14.29,0,0,1,.73-4.76,10.74,10.74,0,0,1,2.21-3.74,9,9,0,0,1,3.27-2.37,9.93,9.93,0,0,1,3.85-.73,9.74,9.74,0,0,1,3.84.75,8.86,8.86,0,0,1,3.13,2.24,11,11,0,0,1,2.33,3.88A14.55,14.55,0,0,1,490,877.48Zm-1.67,0a12.65,12.65,0,0,0-.8-4.76,10.23,10.23,0,0,0-2.27-3.48,6.64,6.64,0,0,0-2.42-1.55,8,8,0,0,0-2.83-.51,8.48,8.48,0,0,0-3.05.51,7,7,0,0,0-2.6,1.86,10,10,0,0,0-2.08,3.43,13.3,13.3,0,0,0-.69,4.48,12.69,12.69,0,0,0,.86,4.89,9.79,9.79,0,0,0,2.48,3.53,6.61,6.61,0,0,0,2.25,1.33,8.41,8.41,0,0,0,2.78.47,8.23,8.23,0,0,0,2.91-.54,6.64,6.64,0,0,0,2.5-1.64,10,10,0,0,0,2.22-3.5A13,13,0,0,0,488.32,877.52Z"/><path d="M508.1,857.68h-1a8.83,8.83,0,0,0-3,.52,6,6,0,0,0-2.37,1.5,5.88,5.88,0,0,0-1.34,2.27,11.52,11.52,0,0,0-.44,3.58v.83h7.67v1.32H500q0,7.13,0,13.82t0,7.06h-1.69q0-.36,0-6.79t0-14.09H494v-1.32h4.33v-1.11a13.21,13.21,0,0,1,.41-3.38,7.06,7.06,0,0,1,4.31-4.77,10.1,10.1,0,0,1,3.94-.76h.88Z"/><path d="M535.52,887.24l-.13,1.36-.71,0c-.3,0-.59,0-.85,0-2.63,0-4.6-.64-5.93-1.92s-2-3.23-2-5.86c0-1.81,0-3.93,0-6.36s0-4.67,0-6.75h-3.71v-1.32H526v-5.14h1.56v5.14h8.1v1.32h-8.1c0,.44,0,1.32,0,2.65s0,2.66,0,4c0,1.48,0,2.64,0,3.47s0,1.66,0,2.47q0,3.61,1.46,5.28c1,1.11,2.73,1.66,5.27,1.66h1.23Z"/><path d="M558.37,888.58h-1.69c0-.59,0-1.89,0-3.91s0-3.78,0-5.26,0-2.73,0-3.85,0-1.89,0-2.3c0-2.11-.43-3.62-1.19-4.52a4.64,4.64,0,0,0-3.76-1.37,9.7,9.7,0,0,0-3.36.82,36.05,36.05,0,0,0-5,2.57l0,17.82h-1.69c0-.69,0-2.28,0-4.77s0-6.67,0-12.53q0-2.89,0-7.14c0-2.82,0-5.42,0-7.78h1.69l0,12.92.06,0a40.57,40.57,0,0,1,4.9-2.52,10.39,10.39,0,0,1,4-.89,5.69,5.69,0,0,1,4.57,1.8,7.12,7.12,0,0,1,1.54,4.77c0,1.7,0,3.12,0,4.27s0,2.12,0,2.92,0,2.37,0,4.51S558.37,887.79,558.37,888.58Z"/><path d="M569.05,860.47h-2V858.3h2Zm-.16,28.11H567.2c0-.52,0-1.65,0-3.42s0-4.23,0-7.39c0-1.59,0-3.38,0-5.38s0-4,0-6h1.69c0,2.3,0,4.26,0,5.86s0,3.37,0,5.31,0,4.28,0,6.7S568.89,888.11,568.89,888.58Z"/><path d="M588.51,882.56a5.06,5.06,0,0,1-.67,2.6,6.19,6.19,0,0,1-2,2,8.27,8.27,0,0,1-2.82,1.12,17.52,17.52,0,0,1-3.8.38c-.5,0-1.08,0-1.75-.06s-1.16-.07-1.46-.1l0-1.45c.31,0,.77.07,1.38.1s1.31.06,2.07.06a18.65,18.65,0,0,0,2.81-.23,6.85,6.85,0,0,0,2.11-.59,5.68,5.68,0,0,0,1.84-1.47,3.44,3.44,0,0,0,.64-2.17,3.4,3.4,0,0,0-.59-1.93,5.5,5.5,0,0,0-1.71-1.59,19.75,19.75,0,0,0-2.42-1.24,26.65,26.65,0,0,1-2.61-1.33,6.54,6.54,0,0,1-2.15-2,5.06,5.06,0,0,1-.07-5.35,6.08,6.08,0,0,1,2.19-2,8.29,8.29,0,0,1,2.3-.8,15.88,15.88,0,0,1,3.26-.3c.76,0,1.4,0,1.92,0l1,.05.09,1.41c-.31,0-.75,0-1.33,0s-1.22,0-1.93,0a14.48,14.48,0,0,0-2.62.21,6.14,6.14,0,0,0-2,.72,4.21,4.21,0,0,0-1.49,1.4,3.38,3.38,0,0,0-.49,1.8,3.53,3.53,0,0,0,.57,1.95,5.66,5.66,0,0,0,1.93,1.68c.59.34,1.33.71,2.24,1.12s1.71.82,2.42,1.23a6.63,6.63,0,0,1,2.4,2.14A4.91,4.91,0,0,1,588.51,882.56Z"/><path d="M31.88,948.74q-2.7,7.25-5.17,14.42c-1.65,4.78-2.49,7.26-2.54,7.42H22.52q-.06-.2-1.8-6.32t-4-13.06h0q-2,5.84-4.14,12.51l-2.21,6.87H8.64c-.11-.41-.9-2.82-2.4-7.22S3,954.07,1.12,948.69l1.58-.61L9.49,968h0l6.35-19.25h1.73l5.81,19.23h0l6.94-19.78Z"/><path d="M54,970.58H52.3c0-.59,0-1.89,0-3.91s0-3.78,0-5.26,0-2.73,0-3.85,0-1.89,0-2.3c0-2.11-.43-3.62-1.19-4.52a4.64,4.64,0,0,0-3.76-1.37,9.7,9.7,0,0,0-3.36.82,35.52,35.52,0,0,0-5.05,2.57l0,17.82H37.29c0-.69,0-2.28,0-4.77s0-6.67,0-12.53q0-2.89,0-7.14c0-2.82,0-5.42,0-7.78H39l0,12.92.06,0a40.57,40.57,0,0,1,4.9-2.52,10.39,10.39,0,0,1,4-.89,5.69,5.69,0,0,1,4.57,1.8A7.12,7.12,0,0,1,54,954.47c0,1.7,0,3.12,0,4.27s0,2.12,0,2.92,0,2.37,0,4.51S54,969.79,54,970.58Z"/><path d="M64.67,942.47h-2V940.3h2Zm-.16,28.11H62.82c0-.52,0-1.65,0-3.42s0-4.23,0-7.39c0-1.59,0-3.38,0-5.38s0-4,0-6h1.69c0,2.3,0,4.26,0,5.86s0,3.37,0,5.31,0,4.28,0,6.7S64.51,970.11,64.51,970.58Z"/><path d="M87.12,969.26l-.15,1.4H85.76a22.42,22.42,0,0,1-5-.52,14.4,14.4,0,0,1-4.13-1.61,10.59,10.59,0,0,1-3.88-3.84,10.43,10.43,0,0,1-1.39-5.34,9.55,9.55,0,0,1,1.27-4.85A11.06,11.06,0,0,1,76,950.89,14.06,14.06,0,0,1,80.42,949a20.9,20.9,0,0,1,5.34-.68h.9l.09,1.41h-.64a21.15,21.15,0,0,0-4,.35,16.41,16.41,0,0,0-3.29,1,9.17,9.17,0,0,0-4.12,3.32,8.52,8.52,0,0,0-1.61,4.95,8.65,8.65,0,0,0,1.43,5A9.44,9.44,0,0,0,78,967.48a15.62,15.62,0,0,0,4,1.41,21,21,0,0,0,3.85.37h1.29Z"/><path d="M110.26,970.58h-1.69c0-.59,0-1.89,0-3.91s0-3.78,0-5.26,0-2.73,0-3.85,0-1.89,0-2.3c0-2.11-.43-3.62-1.19-4.52a4.65,4.65,0,0,0-3.76-1.37,9.7,9.7,0,0,0-3.36.82,35.52,35.52,0,0,0-5.05,2.57l0,17.82H93.56c0-.69,0-2.28,0-4.77s0-6.67,0-12.53q0-2.89,0-7.14c0-2.82,0-5.42,0-7.78h1.69l0,12.92.06,0a40.57,40.57,0,0,1,4.9-2.52,10.39,10.39,0,0,1,4-.89,5.69,5.69,0,0,1,4.57,1.8,7.12,7.12,0,0,1,1.54,4.77c0,1.7,0,3.12,0,4.27s0,2.12,0,2.92,0,2.37,0,4.51S110.26,969.79,110.26,970.58Z"/><path d="M141.65,969.24l-.13,1.36-.7,0c-.31,0-.59,0-.86,0q-3.93,0-5.92-1.92c-1.32-1.28-2-3.23-2-5.86q0-2.72,0-6.36t0-6.75h-3.72v-1.32h3.78v-5.14h1.56v5.14h8.11v1.32h-8.11c0,.44,0,1.32,0,2.65s0,2.66,0,4c0,1.48,0,2.64,0,3.47s0,1.66,0,2.47q0,3.61,1.46,5.28t5.26,1.66h1.23Z"/><path d="M164.51,970.58h-1.7c0-.59,0-1.89,0-3.91s0-3.78,0-5.26,0-2.73,0-3.85,0-1.89,0-2.3c0-2.11-.42-3.62-1.18-4.52a4.67,4.67,0,0,0-3.76-1.37,9.7,9.7,0,0,0-3.36.82,36.09,36.09,0,0,0-5.06,2.57l.05,17.82h-1.69c0-.69,0-2.28,0-4.77s0-6.67,0-12.53q0-2.89,0-7.14c0-2.82,0-5.42,0-7.78h1.69l-.05,12.92.07,0a40.57,40.57,0,0,1,4.9-2.52,10.38,10.38,0,0,1,4-.89,5.66,5.66,0,0,1,4.57,1.8,7.07,7.07,0,0,1,1.54,4.77c0,1.7,0,3.12,0,4.27s0,2.12,0,2.92,0,2.37,0,4.51S164.51,969.79,164.51,970.58Z"/><path d="M175.18,942.47h-2V940.3h2ZM175,970.58h-1.69c0-.52,0-1.65,0-3.42s0-4.23,0-7.39c0-1.59,0-3.38,0-5.38l0-6H175c0,2.3,0,4.26,0,5.86s0,3.37,0,5.31,0,4.28,0,6.7S175,970.11,175,970.58Z"/><path d="M194.65,964.56a5.06,5.06,0,0,1-.67,2.6,6.22,6.22,0,0,1-2,2,8.13,8.13,0,0,1-2.81,1.12,17.58,17.58,0,0,1-3.8.38c-.5,0-1.08,0-1.76-.06s-1.16-.07-1.45-.1l0-1.45c.31,0,.77.07,1.38.1s1.31.06,2.07.06a18.65,18.65,0,0,0,2.81-.23,6.85,6.85,0,0,0,2.11-.59,5.53,5.53,0,0,0,1.83-1.47,3.38,3.38,0,0,0,.65-2.17,3.47,3.47,0,0,0-.59-1.93,5.66,5.66,0,0,0-1.72-1.59,19.47,19.47,0,0,0-2.41-1.24,27,27,0,0,1-2.62-1.33,6.61,6.61,0,0,1-2.14-2,5.09,5.09,0,0,1-.08-5.35,6.2,6.2,0,0,1,2.2-2,8.18,8.18,0,0,1,2.3-.8,15.81,15.81,0,0,1,3.26-.3c.76,0,1.4,0,1.91,0l1,.05.09,1.41c-.3,0-.75,0-1.33,0s-1.22,0-1.92,0a14.59,14.59,0,0,0-2.63.21,6.17,6.17,0,0,0-2,.72,4.13,4.13,0,0,0-1.49,1.4,3.38,3.38,0,0,0-.49,1.8,3.53,3.53,0,0,0,.57,1.95,5.56,5.56,0,0,0,1.93,1.68c.59.34,1.33.71,2.23,1.12s1.71.82,2.43,1.23a6.71,6.71,0,0,1,2.4,2.14A4.91,4.91,0,0,1,194.65,964.56Z"/><path d="M243.52,970.58h-1.7c0-.5,0-1.43,0-2.78s0-3.5,0-6.43c0-1,0-2.16,0-3.44s0-2.16,0-2.65q0-3.27-1.08-4.59a4.28,4.28,0,0,0-3.55-1.32,9.13,9.13,0,0,0-3.12.7,30,30,0,0,0-4.84,2.49c0,.13,0,.41.07.82s0,.79,0,1.11v7.56c0,.72,0,2.09,0,4.12s0,3.5,0,4.41h-1.7c0-.57,0-1.81,0-3.71s0-3.58,0-5.06,0-2.83,0-4,0-2,0-2.48a11.85,11.85,0,0,0-.28-2.72,4.89,4.89,0,0,0-.81-1.89,3.06,3.06,0,0,0-1.3-.94,5.48,5.48,0,0,0-2.15-.36,8.74,8.74,0,0,0-3.3.83,32.18,32.18,0,0,0-4.64,2.58V960q0,2.38,0,5.91c0,2.34,0,3.9,0,4.68h-1.69c0-.52,0-1.51,0-3s0-4.18,0-8.09c0-1.58,0-3.32,0-5.23s0-3.86,0-5.89h1.67l0,2.9.07.05a34.18,34.18,0,0,1,4.66-2.55,9.43,9.43,0,0,1,3.71-.88,5.59,5.59,0,0,1,3.4,1,5.05,5.05,0,0,1,1.85,2.37H229a27.07,27.07,0,0,1,4.63-2.39,11.21,11.21,0,0,1,4.07-1,5.28,5.28,0,0,1,4.38,1.78,7.49,7.49,0,0,1,1.42,4.81c0,1.72,0,3.13,0,4.24s0,2.08,0,2.88,0,2.38,0,4.54S243.52,969.79,243.52,970.58Z"/><path d="M265.84,957.87v12.71c-.49,0-1.32.06-2.49.14s-2.29.12-3.31.12a24.62,24.62,0,0,1-3.48-.26,10.72,10.72,0,0,1-3.14-.93,6.27,6.27,0,0,1-2.63-2.22,5.49,5.49,0,0,1-.88-3.07,4.94,4.94,0,0,1,1.19-3.29,8.9,8.9,0,0,1,3.6-2.38,20.58,20.58,0,0,1,3.24-1q1.68-.36,6.27-.82a8.9,8.9,0,0,0-.91-3.75,5.94,5.94,0,0,0-2.32-2.29,8.39,8.39,0,0,0-2.28-.85,13.88,13.88,0,0,0-3.07-.3c-.68,0-1.28,0-1.8,0l-1.46,0,.18-1.47,1-.05,1.93,0a16.75,16.75,0,0,1,4.62.58,7.94,7.94,0,0,1,3.24,1.75,7.33,7.33,0,0,1,1.88,2.79A12.82,12.82,0,0,1,265.84,957.87Zm-1.63,6.06v-5.68c-1.26.09-2.76.27-4.51.54a20.75,20.75,0,0,0-4.34,1.08,6.68,6.68,0,0,0-2.87,1.92,3.89,3.89,0,0,0-.91,2.47,4.27,4.27,0,0,0,.91,2.8,6.36,6.36,0,0,0,2.76,1.78,10.36,10.36,0,0,0,2.52.53c1,.1,2.16.15,3.47.15l1.2,0c.54,0,1.12-.06,1.75-.12,0-.26,0-1,0-2S264.21,965.08,264.21,963.93Z"/><path d="M285.64,949.31a37.52,37.52,0,0,0-4.08,1.49,42,42,0,0,0-5.79,3c0,.16,0,1,0,2.62s0,3,0,4.08q0,2.6,0,6.15c0,2.37,0,3.69,0,4H274.1c0-.25,0-1.07,0-2.46s0-3.78,0-7.14c0-1.37,0-3.26,0-5.7s0-4.73,0-6.9h1.69l0,3.74,0,0a35.72,35.72,0,0,1,5.19-2.66,42.82,42.82,0,0,1,4.28-1.62Z"/><path d="M305.89,948.25c0,.32,0,1.76,0,4.3s0,5,0,7.3c0,1.59,0,3.2,0,4.84s0,3.14,0,4.5a12.32,12.32,0,0,1-1.17,5.89,8.91,8.91,0,0,1-3.35,3.41,14.36,14.36,0,0,1-4.2,1.54,29.14,29.14,0,0,1-6,.54l-.2-1.31a31.82,31.82,0,0,0,4.68-.32,14.33,14.33,0,0,0,4-1.11,7.3,7.3,0,0,0,3.58-3.16,9.38,9.38,0,0,0,1-4.44h-1a21.46,21.46,0,0,1-5.52-.69,15.51,15.51,0,0,1-4.52-1.91,10.38,10.38,0,0,1-3.26-3.36,9.73,9.73,0,0,1-1.31-5.21,8.74,8.74,0,0,1,1.65-5.32,12.24,12.24,0,0,1,4.22-3.62,14.68,14.68,0,0,1,4-1.41,26.05,26.05,0,0,1,5.13-.46h2.28Zm-1.64,11.58c0-1.05,0-2.6,0-4.63s0-3.92,0-5.63h-.53a25.92,25.92,0,0,0-4.07.28,14.59,14.59,0,0,0-3.77,1.17,11,11,0,0,0-3.88,3,7.72,7.72,0,0,0-1.66,5.08,8.57,8.57,0,0,0,1.35,4.89,9.9,9.9,0,0,0,3.57,3.19,13.87,13.87,0,0,0,3.6,1.26,22.31,22.31,0,0,0,4.64.46h.77c0-.18,0-1.24,0-3.18S304.25,961.82,304.25,959.83Z"/><path d="M316.68,942.47h-2V940.3h2Zm-.15,28.11h-1.69c0-.52,0-1.65,0-3.42s0-4.23,0-7.39c0-1.59,0-3.38,0-5.38l0-6h1.69c0,2.3,0,4.26,0,5.86s0,3.37,0,5.31,0,4.28,0,6.7S316.53,970.11,316.53,970.58Z"/><path d="M342.17,970.58h-1.69c0-.41,0-1.77,0-4.07s0-3.72,0-4.26c0-.76,0-1.9,0-3.43s0-2.63,0-3.32q-.08-3.5-1.21-4.81a4.76,4.76,0,0,0-3.78-1.32,10.6,10.6,0,0,0-4,1.1,31.43,31.43,0,0,0-4.33,2.29c0,.16,0,1.19,0,3.08s0,3.5,0,4.81c0,1.69,0,3.75,0,6.15s0,3.66,0,3.78h-1.69c0-.11,0-1,0-2.69s0-4.21,0-7.55c0-1.54,0-3.33,0-5.39s0-4.24,0-6.57h1.69l0,2.9,0,.05a36,36,0,0,1,4.64-2.42,11.27,11.27,0,0,1,4.44-1,5.72,5.72,0,0,1,4.24,1.7,6.56,6.56,0,0,1,1.67,4.78c0,1.85,0,3.44,0,4.78s0,2.43,0,3.26c0,1.34,0,3,0,5S342.17,970.47,342.17,970.58Z"/><path d="M365,942.47h-2V940.3h2Zm-.16,28.11h-1.69c0-.52,0-1.65,0-3.42s0-4.23,0-7.39c0-1.59,0-3.38,0-5.38s0-4,0-6h1.69c0,2.3,0,4.26,0,5.86s0,3.37,0,5.31,0,4.28,0,6.7S364.84,970.11,364.84,970.58Z"/><path d="M384.46,964.56a5.06,5.06,0,0,1-.67,2.6,6.19,6.19,0,0,1-2,2,8.27,8.27,0,0,1-2.82,1.12,17.52,17.52,0,0,1-3.8.38c-.5,0-1.08,0-1.75-.06s-1.16-.07-1.46-.1l0-1.45c.31,0,.77.07,1.39.1s1.3.06,2.06.06a18.65,18.65,0,0,0,2.81-.23,6.85,6.85,0,0,0,2.11-.59,5.68,5.68,0,0,0,1.84-1.47,3.44,3.44,0,0,0,.64-2.17,3.4,3.4,0,0,0-.59-1.93,5.5,5.5,0,0,0-1.71-1.59,19.75,19.75,0,0,0-2.42-1.24,27.85,27.85,0,0,1-2.61-1.33,6.54,6.54,0,0,1-2.15-2,5.06,5.06,0,0,1-.07-5.35,6.08,6.08,0,0,1,2.19-2,8.29,8.29,0,0,1,2.3-.8,15.88,15.88,0,0,1,3.26-.3c.76,0,1.4,0,1.92,0l1,.05.09,1.41c-.31,0-.75,0-1.33,0s-1.22,0-1.93,0a14.48,14.48,0,0,0-2.62.21,6.14,6.14,0,0,0-2,.72,4.21,4.21,0,0,0-1.49,1.4,3.47,3.47,0,0,0-.49,1.8,3.53,3.53,0,0,0,.57,1.95,5.66,5.66,0,0,0,1.93,1.68c.59.34,1.33.71,2.24,1.12s1.71.82,2.42,1.23a6.63,6.63,0,0,1,2.4,2.14A4.91,4.91,0,0,1,384.46,964.56Z"/><path d="M414,969.24l-.14,1.36-.7,0c-.31,0-.59,0-.86,0q-3.93,0-5.92-1.92c-1.32-1.28-2-3.23-2-5.86q0-2.72,0-6.36t0-6.75h-3.72v-1.32h3.78v-5.14h1.56v5.14h8.11v1.32h-8.11c0,.44,0,1.32,0,2.65s0,2.66,0,4c0,1.48,0,2.64,0,3.47s0,1.66,0,2.47q0,3.61,1.46,5.28t5.26,1.66H414Z"/><path d="M438.23,959.48a14.26,14.26,0,0,1-.8,4.92,10.94,10.94,0,0,1-2.48,3.89,9.21,9.21,0,0,1-3.08,2.09,10.51,10.51,0,0,1-7.36,0,8.83,8.83,0,0,1-3.09-2.08,10.82,10.82,0,0,1-2.44-3.84,13.89,13.89,0,0,1-.84-5,14.55,14.55,0,0,1,.73-4.76,10.62,10.62,0,0,1,2.22-3.74,9,9,0,0,1,3.26-2.37,10,10,0,0,1,3.86-.73,9.69,9.69,0,0,1,3.83.75,8.78,8.78,0,0,1,3.13,2.24,10.88,10.88,0,0,1,2.33,3.88A14.28,14.28,0,0,1,438.23,959.48Zm-1.67,0a12.85,12.85,0,0,0-.8-4.76,10.41,10.41,0,0,0-2.28-3.48,6.56,6.56,0,0,0-2.42-1.55,8,8,0,0,0-2.83-.51,8.42,8.42,0,0,0-3,.51,7,7,0,0,0-2.61,1.86,9.94,9.94,0,0,0-2.07,3.43,13.29,13.29,0,0,0-.7,4.48,12.69,12.69,0,0,0,.86,4.89,9.79,9.79,0,0,0,2.48,3.53,6.56,6.56,0,0,0,2.26,1.33,8.32,8.32,0,0,0,2.78.47,8.23,8.23,0,0,0,2.91-.54,6.52,6.52,0,0,0,2.49-1.64,10,10,0,0,0,2.22-3.5A12.75,12.75,0,0,0,436.56,959.52Z"/><path d="M463,959.48a14.26,14.26,0,0,1-.8,4.92,11.05,11.05,0,0,1-2.47,3.89,9.34,9.34,0,0,1-3.09,2.09,10.51,10.51,0,0,1-7.36,0,8.83,8.83,0,0,1-3.09-2.08,10.82,10.82,0,0,1-2.44-3.84,13.9,13.9,0,0,1-.83-5,14.56,14.56,0,0,1,.72-4.76,10.62,10.62,0,0,1,2.22-3.74,9,9,0,0,1,3.26-2.37,10,10,0,0,1,3.86-.73,9.66,9.66,0,0,1,3.83.75,8.78,8.78,0,0,1,3.13,2.24,11.05,11.05,0,0,1,2.34,3.88A14.55,14.55,0,0,1,463,959.48Zm-1.67,0a12.85,12.85,0,0,0-.8-4.76,10.26,10.26,0,0,0-2.28-3.48,6.6,6.6,0,0,0-2.41-1.55,8.06,8.06,0,0,0-2.84-.51,8.46,8.46,0,0,0-3,.51,6.86,6.86,0,0,0-2.6,1.86,9.82,9.82,0,0,0-2.08,3.43,13.3,13.3,0,0,0-.69,4.48,12.69,12.69,0,0,0,.85,4.89,9.82,9.82,0,0,0,2.49,3.53,6.43,6.43,0,0,0,2.25,1.33,8.37,8.37,0,0,0,2.78.47,8.23,8.23,0,0,0,2.91-.54,6.52,6.52,0,0,0,2.49-1.64,10,10,0,0,0,2.22-3.5A12.75,12.75,0,0,0,461.32,959.52Z"/><path d="M498.54,970.58h-1.69c0-.41,0-1.77,0-4.07s0-3.72,0-4.26c0-.76,0-1.9,0-3.43s0-2.63,0-3.32q-.08-3.5-1.21-4.81a4.76,4.76,0,0,0-3.78-1.32,10.6,10.6,0,0,0-4,1.1,31.43,31.43,0,0,0-4.33,2.29c0,.16,0,1.19,0,3.08s0,3.5,0,4.81c0,1.69,0,3.75,0,6.15s0,3.66,0,3.78h-1.69c0-.11,0-1,0-2.69s0-4.21,0-7.55c0-1.54,0-3.33,0-5.39s0-4.24,0-6.57h1.69l0,2.9,0,.05a36.7,36.7,0,0,1,4.64-2.42,11.35,11.35,0,0,1,4.44-1,5.72,5.72,0,0,1,4.24,1.7,6.56,6.56,0,0,1,1.67,4.78c0,1.85,0,3.44,0,4.78s0,2.43,0,3.26c0,1.34,0,3,0,5S498.54,970.47,498.54,970.58Z"/><path d="M520.91,957.87v12.71c-.49,0-1.32.06-2.5.14s-2.28.12-3.3.12a24.87,24.87,0,0,1-3.49-.26,10.75,10.75,0,0,1-3.13-.93,6.27,6.27,0,0,1-2.63-2.22,5.49,5.49,0,0,1-.88-3.07,5,5,0,0,1,1.18-3.29,8.94,8.94,0,0,1,3.61-2.38,20.58,20.58,0,0,1,3.24-1q1.68-.36,6.27-.82a8.9,8.9,0,0,0-.91-3.75,5.94,5.94,0,0,0-2.32-2.29,8.39,8.39,0,0,0-2.28-.85,13.94,13.94,0,0,0-3.07-.3c-.68,0-1.28,0-1.8,0l-1.46,0,.17-1.47,1-.05,1.94,0a16.75,16.75,0,0,1,4.62.58,8,8,0,0,1,3.24,1.75,7.45,7.45,0,0,1,1.88,2.79A12.82,12.82,0,0,1,520.91,957.87Zm-1.63,6.06v-5.68c-1.26.09-2.76.27-4.51.54a20.75,20.75,0,0,0-4.34,1.08,6.68,6.68,0,0,0-2.87,1.92,3.89,3.89,0,0,0-.91,2.47,4.27,4.27,0,0,0,.91,2.8,6.36,6.36,0,0,0,2.76,1.78,10.36,10.36,0,0,0,2.52.53c1,.1,2.16.15,3.47.15l1.2,0c.54,0,1.12-.06,1.75-.12,0-.26,0-1,0-2S519.28,965.08,519.28,963.93Z"/><path d="M540.7,949.31a38.35,38.35,0,0,0-4.07,1.49,41.41,41.41,0,0,0-5.79,3c0,.16,0,1,0,2.62s0,3,0,4.08c0,1.73,0,3.78,0,6.15s0,3.69,0,4h-1.69c0-.25,0-1.07,0-2.46s0-3.78,0-7.14c0-1.37,0-3.26,0-5.7s0-4.73,0-6.9h1.69l0,3.74,0,0a35.72,35.72,0,0,1,5.19-2.66,42.82,42.82,0,0,1,4.28-1.62Z"/><path d="M557.31,949.31a38.35,38.35,0,0,0-4.07,1.49,42,42,0,0,0-5.79,3c0,.16,0,1,0,2.62s0,3,0,4.08c0,1.73,0,3.78,0,6.15s0,3.69,0,4h-1.69c0-.25,0-1.07,0-2.46s0-3.78,0-7.14c0-1.37,0-3.26,0-5.7s0-4.73,0-6.9h1.69l0,3.74,0,0a35.72,35.72,0,0,1,5.19-2.66,42.82,42.82,0,0,1,4.28-1.62Z"/><path d="M580.45,959.48a14.26,14.26,0,0,1-.8,4.92,11.05,11.05,0,0,1-2.47,3.89,9.24,9.24,0,0,1-3.09,2.09,10.51,10.51,0,0,1-7.36,0,8.83,8.83,0,0,1-3.09-2.08,10.82,10.82,0,0,1-2.44-3.84,14.12,14.12,0,0,1-.83-5,14.56,14.56,0,0,1,.72-4.76,10.92,10.92,0,0,1,2.22-3.74,9.1,9.1,0,0,1,3.26-2.37,10,10,0,0,1,3.86-.73,9.74,9.74,0,0,1,3.84.75,9,9,0,0,1,3.13,2.24,11,11,0,0,1,2.33,3.88A14.55,14.55,0,0,1,580.45,959.48Zm-1.67,0a12.85,12.85,0,0,0-.8-4.76,10.26,10.26,0,0,0-2.28-3.48,6.52,6.52,0,0,0-2.41-1.55,8.06,8.06,0,0,0-2.84-.51,8.46,8.46,0,0,0-3,.51,6.94,6.94,0,0,0-2.6,1.86,9.82,9.82,0,0,0-2.08,3.43,13.3,13.3,0,0,0-.69,4.48,12.69,12.69,0,0,0,.85,4.89,9.82,9.82,0,0,0,2.49,3.53,6.43,6.43,0,0,0,2.25,1.33,8.37,8.37,0,0,0,2.78.47,8.23,8.23,0,0,0,2.91-.54,6.52,6.52,0,0,0,2.49-1.64A9.76,9.76,0,0,0,578,964,12.75,12.75,0,0,0,578.78,959.52Z"/><path d="M614.64,948.74q-2.7,7.25-5.18,14.42c-1.64,4.78-2.49,7.26-2.53,7.42h-1.65q-.07-.2-1.8-6.32t-4-13.06h-.05q-2,5.84-4.14,12.51l-2.21,6.87h-1.67q-.15-.62-2.39-7.22t-5.12-14.67l1.57-.61,6.8,19.88h0l6.35-19.25h1.74l5.8,19.23h0l6.94-19.78Z"/><path d="M642.83,969.24l-.13,1.36-.71,0c-.3,0-.59,0-.85,0q-3.95,0-5.92-1.92t-2-5.86c0-1.81,0-3.93,0-6.36s0-4.67,0-6.75h-3.71v-1.32h3.78v-5.14h1.56v5.14H643v1.32h-8.1c0,.44,0,1.32,0,2.65s0,2.66,0,4c0,1.48,0,2.64,0,3.47s0,1.66,0,2.47q0,3.61,1.47,5.28t5.26,1.66h1.23Z"/><path d="M667,959.48a14.26,14.26,0,0,1-.8,4.92,11.05,11.05,0,0,1-2.47,3.89,9.24,9.24,0,0,1-3.09,2.09,10.51,10.51,0,0,1-7.36,0,8.83,8.83,0,0,1-3.09-2.08,10.82,10.82,0,0,1-2.44-3.84,14.12,14.12,0,0,1-.83-5,14.56,14.56,0,0,1,.72-4.76A10.92,10.92,0,0,1,649.9,951a9,9,0,0,1,3.27-2.37,9.93,9.93,0,0,1,3.85-.73,9.74,9.74,0,0,1,3.84.75,8.86,8.86,0,0,1,3.13,2.24,11,11,0,0,1,2.33,3.88A14.55,14.55,0,0,1,667,959.48Zm-1.67,0a12.85,12.85,0,0,0-.8-4.76,10.38,10.38,0,0,0-2.27-3.48,6.64,6.64,0,0,0-2.42-1.55,8.06,8.06,0,0,0-2.84-.51,8.46,8.46,0,0,0-3,.51,6.94,6.94,0,0,0-2.6,1.86,9.82,9.82,0,0,0-2.08,3.43,13.3,13.3,0,0,0-.69,4.48,12.69,12.69,0,0,0,.85,4.89,9.82,9.82,0,0,0,2.49,3.53,6.43,6.43,0,0,0,2.25,1.33,8.37,8.37,0,0,0,2.78.47,8.23,8.23,0,0,0,2.91-.54,6.52,6.52,0,0,0,2.49-1.64,9.76,9.76,0,0,0,2.22-3.5A12.75,12.75,0,0,0,665.37,959.52Z"/><path d="M699.56,969.26l-.16,1.4h-1.2a22.36,22.36,0,0,1-5-.52,14.28,14.28,0,0,1-4.13-1.61,10.36,10.36,0,0,1-5.27-9.18,9.55,9.55,0,0,1,1.27-4.85,11.06,11.06,0,0,1,3.32-3.61,13.86,13.86,0,0,1,4.44-1.94,20.9,20.9,0,0,1,5.34-.68h.9l.09,1.41h-.64a21.15,21.15,0,0,0-4,.35,16.41,16.41,0,0,0-3.29,1,9.17,9.17,0,0,0-4.12,3.32,8.45,8.45,0,0,0-1.61,4.95,8.72,8.72,0,0,0,1.42,5,9.54,9.54,0,0,0,3.5,3.21,15.62,15.62,0,0,0,4,1.41,21,21,0,0,0,3.84.37h1.3Z"/><path d="M724.06,959.48a14.26,14.26,0,0,1-.8,4.92,10.94,10.94,0,0,1-2.48,3.89,9.21,9.21,0,0,1-3.08,2.09,10.51,10.51,0,0,1-7.36,0,8.83,8.83,0,0,1-3.09-2.08,10.82,10.82,0,0,1-2.44-3.84,13.9,13.9,0,0,1-.83-5,14.56,14.56,0,0,1,.72-4.76,10.62,10.62,0,0,1,2.22-3.74,9,9,0,0,1,3.26-2.37,10,10,0,0,1,3.86-.73,9.69,9.69,0,0,1,3.83.75,8.78,8.78,0,0,1,3.13,2.24,10.88,10.88,0,0,1,2.33,3.88A14.28,14.28,0,0,1,724.06,959.48Zm-1.67,0a12.85,12.85,0,0,0-.8-4.76,10.41,10.41,0,0,0-2.28-3.48,6.56,6.56,0,0,0-2.42-1.55,8,8,0,0,0-2.83-.51,8.42,8.42,0,0,0-3,.51,7,7,0,0,0-2.61,1.86,9.94,9.94,0,0,0-2.07,3.43,13.29,13.29,0,0,0-.7,4.48,12.69,12.69,0,0,0,.86,4.89,9.79,9.79,0,0,0,2.48,3.53,6.56,6.56,0,0,0,2.26,1.33,8.32,8.32,0,0,0,2.78.47,8.23,8.23,0,0,0,2.91-.54,6.52,6.52,0,0,0,2.49-1.64,10,10,0,0,0,2.22-3.5A12.75,12.75,0,0,0,722.39,959.52Z"/><path d="M747.46,970.58h-1.69c0-.41,0-1.77,0-4.07s0-3.72,0-4.26c0-.76,0-1.9,0-3.43s0-2.63,0-3.32q-.07-3.5-1.21-4.81a4.76,4.76,0,0,0-3.78-1.32,10.6,10.6,0,0,0-4,1.1,31.43,31.43,0,0,0-4.33,2.29c0,.16,0,1.19,0,3.08s0,3.5,0,4.81c0,1.69,0,3.75,0,6.15s0,3.66,0,3.78h-1.69c0-.11,0-1,0-2.69s0-4.21,0-7.55c0-1.54,0-3.33,0-5.39s0-4.24,0-6.57h1.69l0,2.9,0,.05a36,36,0,0,1,4.64-2.42,11.27,11.27,0,0,1,4.43-1,5.73,5.73,0,0,1,4.25,1.7,6.56,6.56,0,0,1,1.66,4.78c0,1.85,0,3.44,0,4.78s0,2.43,0,3.26c0,1.34,0,3,0,5S747.46,970.47,747.46,970.58Z"/><path d="M766.7,969.24l-.13,1.36-.7,0c-.31,0-.59,0-.86,0q-3.93,0-5.92-1.92c-1.32-1.28-2-3.23-2-5.86q0-2.72,0-6.36t0-6.75h-3.72v-1.32h3.78v-5.14h1.56v5.14h8.11v1.32h-8.11c0,.44,0,1.32,0,2.65s0,2.66,0,4c0,1.48,0,2.64,0,3.47s0,1.66,0,2.47q0,3.61,1.46,5.28t5.26,1.66h1.23Z"/><path d="M786.61,957.87v12.71c-.48,0-1.31.06-2.49.14s-2.28.12-3.31.12a24.62,24.62,0,0,1-3.48-.26,10.57,10.57,0,0,1-3.13-.93,6.24,6.24,0,0,1-2.64-2.22,5.49,5.49,0,0,1-.88-3.07,5,5,0,0,1,1.19-3.29,8.9,8.9,0,0,1,3.6-2.38,20.58,20.58,0,0,1,3.24-1q1.68-.36,6.27-.82a8.75,8.75,0,0,0-.91-3.75,5.88,5.88,0,0,0-2.32-2.29,8.39,8.39,0,0,0-2.28-.85,13.88,13.88,0,0,0-3.07-.3c-.68,0-1.27,0-1.79,0l-1.47,0,.18-1.47,1-.05,1.93,0a16.77,16.77,0,0,1,4.63.58,7.89,7.89,0,0,1,3.23,1.75,7.33,7.33,0,0,1,1.88,2.79A12.82,12.82,0,0,1,786.61,957.87ZM785,963.93v-5.68c-1.26.09-2.76.27-4.51.54a20.65,20.65,0,0,0-4.33,1.08,6.66,6.66,0,0,0-2.88,1.92,3.89,3.89,0,0,0-.91,2.47,4.27,4.27,0,0,0,.91,2.8,6.34,6.34,0,0,0,2.77,1.78,10.16,10.16,0,0,0,2.52.53c1,.1,2.16.15,3.46.15l1.2,0c.54,0,1.12-.06,1.75-.12,0-.26,0-1,0-2S785,965.08,785,963.93Z"/><path d="M796.94,942.47h-2V940.3h2Zm-.16,28.11h-1.69c0-.52,0-1.65,0-3.42s0-4.23,0-7.39c0-1.59,0-3.38,0-5.38s0-4,0-6h1.69c0,2.3,0,4.26,0,5.86s0,3.37,0,5.31,0,4.28,0,6.7S796.78,970.11,796.78,970.58Z"/><path d="M822.43,970.58h-1.7c0-.41,0-1.77,0-4.07s0-3.72,0-4.26c0-.76,0-1.9,0-3.43s0-2.63,0-3.32q-.06-3.5-1.21-4.81a4.75,4.75,0,0,0-3.77-1.32,10.6,10.6,0,0,0-4,1.1,31.43,31.43,0,0,0-4.33,2.29c0,.16,0,1.19,0,3.08s0,3.5,0,4.81c0,1.69,0,3.75,0,6.15s0,3.66,0,3.78h-1.69c0-.11,0-1,0-2.69s0-4.21,0-7.55c0-1.54,0-3.33,0-5.39s0-4.24,0-6.57h1.69l0,2.9,0,.05a36.59,36.59,0,0,1,4.63-2.42,11.35,11.35,0,0,1,4.44-1,5.69,5.69,0,0,1,4.24,1.7,6.52,6.52,0,0,1,1.67,4.78c0,1.85,0,3.44,0,4.78s0,2.43,0,3.26c0,1.34,0,3,0,5S822.43,970.47,822.43,970.58Z"/><path d="M1215,3.2q0,7.67,0,17.53t0,14.2q0,13.88,0,22.73t0,9.5l-3.56,1.71Q1197,49.3,1182.74,29.92T1166.54,8.1l-.1.05q0,13.08.08,35.29t.07,25.14h-3.91c0-.82,0-3.71,0-8.69s0-11.92,0-20.81q0-5.31,0-14.74t0-19.29l4.63-2.2q2.3,3.14,17.26,23.4t26.55,35.6l.1-.05q0-7.53-.12-28.77T1211,3.2Z"/><path d="M1292.56,35.91a41.9,41.9,0,0,1-2.27,14.16,32.24,32.24,0,0,1-6.86,11.33,28.47,28.47,0,0,1-9.2,6.71,27.74,27.74,0,0,1-11.36,2.22A28.8,28.8,0,0,1,1251.23,68a27.55,27.55,0,0,1-9.6-7.21,32.56,32.56,0,0,1-6.42-11.13A42.41,42.41,0,0,1,1233.09,36a42.19,42.19,0,0,1,2.39-14.67,34.12,34.12,0,0,1,7.57-11.85,25.43,25.43,0,0,1,8.94-6,30.17,30.17,0,0,1,22,.07,27.45,27.45,0,0,1,9.4,6.81,32.72,32.72,0,0,1,6.84,11.19A41.71,41.71,0,0,1,1292.56,35.91Zm-3.9-.49a36.75,36.75,0,0,0-2.45-13.52,30.4,30.4,0,0,0-6.78-10.6,22.23,22.23,0,0,0-7.91-5.25,24.63,24.63,0,0,0-8.69-1.58A24.26,24.26,0,0,0,1254,6a22.77,22.77,0,0,0-7.59,5,29.87,29.87,0,0,0-7,10.79A39,39,0,0,0,1237,36a39,39,0,0,0,2.24,13.6A30.48,30.48,0,0,0,1246,60.32a22,22,0,0,0,7.62,5.21,24.06,24.06,0,0,0,9.18,1.78,24.67,24.67,0,0,0,8.86-1.66,21,21,0,0,0,7.59-5,33.41,33.41,0,0,0,7.06-10.72A39.29,39.29,0,0,0,1288.66,35.42Z"/><path d="M1352.33,6.61l-7,0q-6.27,0-17.21,0,0,10,0,16.91t0,15.85q0,8.6,0,17.45t0,11.8h-3.91c0-2,0-5.94,0-12s0-11.91,0-17.67,0-10.74,0-15.24,0-10.2,0-17.13q-9.72,0-16.65,0l-7.52,0V3.34l11.43,0,14.35,0,18.48,0,8,0Z"/><path d="M1428.25,6.47l-5.81,0-12.35,0-7.72,0-6.35,0q0,5.51,0,14.62t0,14l4.63,0,6.4,0,13.7,0,7.15,0v3.17l-8.18,0c-4.86,0-9.24,0-13.11,0-1.2,0-3.17,0-5.91,0l-4.68,0q0,8.66,0,17.14t0,13.19h-3.9c0-2,0-5.43.05-10.43s0-12.18,0-21.56c0-3.67,0-8.52,0-14.52s-.05-12.25-.05-18.73l7.83,0,9.74,0,12.8,0,5.76,0Z"/><path d="M1500.9,35.91a41.9,41.9,0,0,1-2.27,14.16,32.24,32.24,0,0,1-6.86,11.33,28.36,28.36,0,0,1-9.2,6.71,27.73,27.73,0,0,1-11.35,2.22A28.81,28.81,0,0,1,1459.57,68a27.43,27.43,0,0,1-9.59-7.21,32.24,32.24,0,0,1-6.42-11.13A42.14,42.14,0,0,1,1441.43,36a42.19,42.19,0,0,1,2.39-14.67,34.12,34.12,0,0,1,7.57-11.85,25.43,25.43,0,0,1,8.94-6,29,29,0,0,1,10.89-2.05,28.55,28.55,0,0,1,11.15,2.12,27.35,27.35,0,0,1,9.4,6.81,32.72,32.72,0,0,1,6.84,11.19A41.71,41.71,0,0,1,1500.9,35.91Zm-3.9-.49a37,37,0,0,0-2.44-13.52,30.42,30.42,0,0,0-6.79-10.6,22.23,22.23,0,0,0-7.91-5.25,24.59,24.59,0,0,0-8.69-1.58A24.26,24.26,0,0,0,1462.35,6a22.77,22.77,0,0,0-7.59,5,30,30,0,0,0-7,10.79A39,39,0,0,0,1445.34,36a39.19,39.19,0,0,0,2.24,13.6,30.48,30.48,0,0,0,6.79,10.76,22,22,0,0,0,7.62,5.21,24.09,24.09,0,0,0,9.18,1.78,24.67,24.67,0,0,0,8.86-1.66,21,21,0,0,0,7.59-5,33.41,33.41,0,0,0,7.06-10.72A39.29,39.29,0,0,0,1497,35.42Z"/><path d="M1568.87,3.2q0,9.38,0,15.5t0,10.67q0,5.56,0,9.49t0,6.82a29.33,29.33,0,0,1-1.58,10,20.46,20.46,0,0,1-4.77,7.52,22.73,22.73,0,0,1-7.86,5.05,32.81,32.81,0,0,1-21.55,0,22.07,22.07,0,0,1-7.89-5.07,20.89,20.89,0,0,1-4.76-7.55,28.83,28.83,0,0,1-1.59-10q0-2.88,0-6.82t0-9.49q0-4.55,0-10.67t0-15.5h3.91q0,1.21,0,8.32t-.05,18.68c0,2.34,0,4.77,0,7.27s0,5.08,0,7.72q0,10.83,6.18,16.23a22,22,0,0,0,15,5.4q9.29,0,15.24-5.3t6-16.33q0-4,0-7.72c0-2.5,0-4.93,0-7.27q0-11.58,0-18.95c0-4.91,0-7.6,0-8Z"/><path d="M1644.41,3.2q0,7.67-.05,17.53t0,14.2q0,13.88,0,22.73t.05,9.5l-3.57,1.71q-14.41-19.58-28.72-38.95T1595.92,8.1l-.1.05q0,13.08.08,35.29t.07,25.14h-3.91c0-.82,0-3.71,0-8.69s.05-11.92.05-20.81q0-5.31-.05-14.74t0-19.29l4.63-2.2Q1599,6,1614,26.25t26.55,35.6l.1-.05q0-7.53-.12-28.77t-.13-29.83Z"/><path d="M1718.38,36.25a29,29,0,0,1-3.76,14.68,31.82,31.82,0,0,1-10.45,10.91,44.53,44.53,0,0,1-12.23,5.3,59.49,59.49,0,0,1-15,1.68c-1.37,0-3,0-5,0s-3.35-.06-4.23-.1q0-2.23,0-10.2t.05-22.51q0-9.23-.05-18.56t0-14.2c.78,0,1.88-.05,3.3-.05h4.08a70.2,70.2,0,0,1,17,1.88,40.91,40.91,0,0,1,13,5.54,28.21,28.21,0,0,1,9.92,10.91A32.5,32.5,0,0,1,1718.38,36.25Zm-3.91,0a29.41,29.41,0,0,0-3-13.33,25.62,25.62,0,0,0-9.45-10.06,40.09,40.09,0,0,0-11.91-5,64.12,64.12,0,0,0-15.09-1.61h-3.37q0,4,0,10.94t-.05,14.31q0,12.58,0,20.36t.07,13.82h3.37a71.37,71.37,0,0,0,14.43-1.35A35,35,0,0,0,1701,59.89a28.26,28.26,0,0,0,10.09-10.23A27.17,27.17,0,0,0,1714.47,36.25Z"/></g></svg>