<?xml version="1.0" encoding="utf-8"?>
<!-- Generator: Adobe Illustrator 19.2.1, SVG Export Plug-In . SVG Version: 6.00 Build 0)  -->
<svg version="1.1" id="icon" xmlns="http://www.w3.org/2000/svg" xmlns:xlink="http://www.w3.org/1999/xlink" x="0px" y="0px"
	 viewBox="0 0 570 400"  preserveAspectRatio="xMinYMin meet" style="enable-background:new 0 0 570 400;" xml:space="preserve">
<style type="text/css">
	.st0{fill:#913175;}
	.st1{fill:#DD5B82;}
	.st2{fill:url(#SVGID_1_);}
</style>
<polygon class="st0" points="564.1,380.6 483.5,300 564.1,300 "/>
<g>
	<g>
		<polygon class="st0" points="466.8,200 400.2,400 467.1,400 533.7,200 		"/>
	</g>
</g>
<g>
	<g>
		<polygon class="st0" points="0,400 133.5,0 0,0 		"/>
	</g>
</g>
<g>
	<g>
		<polygon class="st0" points="199.5,400 333.5,400 400,0 266.5,0 		"/>
	</g>
</g>
<g>
	<g>
		<polygon class="st1" points="0,0 133.5,400 0.1,400 		"/>
	</g>
</g>
<g>
	<g>
		<polygon class="st1" points="0,0 199.5,400 333.5,400 133.5,0 		"/>
	</g>
</g>
<g>
	<g>
		<polygon class="st1" points="266.5,0 400,400 467.1,400 400,0 		"/>
	</g>
</g>
<polygon class="st1" points="534,200 466.8,200 483.5,300 564.1,380.6 "/>
<linearGradient id="SVGID_1_" x1="0" y1="1" x2="1" y2="1">
	<stop  offset="0" style="stop-color:#913175"/>
	<stop  offset="1" style="stop-color:#FFFFFF;stop-opacity:0"/>
</linearGradient>
<rect x="564" y="300" class="st2" width="6" height="80.6"/>
</svg>
