<?xml version="1.0" encoding="utf-8"?>
<!-- Generator: Adobe Illustrator 19.2.1, SVG Export Plug-In . SVG Version: 6.00 Build 0)  -->
<svg version="1.1" id="icon" xmlns="http://www.w3.org/2000/svg" xmlns:xlink="http://www.w3.org/1999/xlink" x="0px" y="0px"
	 viewBox="0 0 400 400" style="enable-background:new 0 0 400 400;" xml:space="preserve">
<style type="text/css">
	.st0{fill:#913175;}
	.st1{fill:#DD5B82;}
</style>
<g>
	<g>
		<polygon class="st0" points="466.8,200 400.2,400 467.1,400 533.7,200 		"/>
	</g>
</g>
<g>
	<g>
		<polygon class="st0" points="0,400 133.5,0 0,0 		"/>
	</g>
</g>
<g>
	<g>
		<polygon class="st0" points="199.5,400 333.5,400 400,0 266.5,0 		"/>
	</g>
</g>
<g>
	<g>
		<polygon class="st1" points="0,0 133.5,400 0.1,400 		"/>
	</g>
</g>
<g>
	<g>
		<polygon class="st1" points="0,0 199.5,400 333.5,400 133.5,0 		"/>
	</g>
</g>
<g>
	<g>
		<polygon class="st1" points="1174.3,-382.4 1190.3,-282.4 1257.2,-282.4 1241.2,-382.4 		"/>
	</g>
</g>
<rect x="937" y="-237.6" class="st0" width="400.2" height="160"/>
<g>
	<path class="st0" d="M1460.7,291.6c-6.2,0-11.3,2.2-15,6.6c-3.8,4.4-5.7,11.7-5.7,21.9c0,10.1,1.9,17.4,5.6,21.8
		c3.8,4.4,8.9,6.6,15.3,6.6c6.7,0,11.8-2.2,15.4-6.5c3.6-4.3,5.5-12.1,5.5-23.3c0-9.4-1.9-16.3-5.7-20.7
		C1472.4,293.8,1467.2,291.6,1460.7,291.6z"/>
	<path class="st0" d="M1577.4,291.6c-6.2,0-11.3,2.2-15,6.6c-3.8,4.4-5.7,11.7-5.7,21.9c0,10.1,1.9,17.4,5.6,21.8
		c3.8,4.4,8.9,6.6,15.3,6.6c6.7,0,11.8-2.2,15.4-6.5c3.6-4.3,5.5-12.1,5.5-23.3c0-9.4-1.9-16.3-5.7-20.7
		C1589,293.8,1583.9,291.6,1577.4,291.6z"/>
	<path class="st0" d="M784.2,291.6c-6.2,0-11.3,2.2-15,6.6c-3.8,4.4-5.7,11.7-5.7,21.9c0,10.1,1.9,17.4,5.6,21.8
		c3.8,4.4,8.9,6.6,15.3,6.6c6.7,0,11.8-2.2,15.4-6.5c3.6-4.3,5.5-12.1,5.5-23.3c0-9.4-1.9-16.3-5.7-20.7
		C795.9,293.8,790.7,291.6,784.2,291.6z"/>
	<path class="st0" d="M867.3,240H473.2l92.4,160h301.7h939.5V240H867.3z M727.2,294.6h-31.6v75.5h-31v-75.5H633v-24.7h94.1V294.6z
		 M830.4,348.1c-3.9,7.5-9.6,13.3-17.1,17.5s-16.7,6.3-27.9,6.3c-11.3,0-20.7-1.8-28.1-5.4c-7.4-3.6-13.4-9.3-18-17.1
		c-4.6-7.8-6.9-17.5-6.9-29.3c0-16.4,4.6-29.1,13.7-38.2c9.1-9.1,21.8-13.7,38.1-13.7c16.7,0,29.5,4.5,38.6,13.4
		s13.5,21.5,13.5,37.6C836.3,331,834.4,340.6,830.4,348.1z M949.1,370.1h-29.2l-37.5-55v55h-29.1V269.9h28.9l37.7,55.4v-55.4h29.2
		V370.1z M1067.9,355.7c-9.2,6.2-17.3,10.5-24.3,12.7s-15.4,3.4-25.1,3.4c-11.9,0-21.6-2-29.1-6.1c-7.5-4.1-13.3-10.1-17.4-18.1
		c-4.1-8-6.2-17.2-6.2-27.6c0-10.9,2.3-20.5,6.8-28.5c4.5-8.1,11.1-14.2,19.8-18.4c6.8-3.2,15.9-4.9,27.4-4.9c11.1,0,19.4,1,24.8,3
		c5.5,2,10,5.1,13.7,9.3c3.6,4.2,6.3,9.6,8.2,16l-29.9,5.3c-1.2-3.8-3.3-6.7-6.3-8.7c-2.9-2-6.7-3-11.2-3c-6.8,0-12.2,2.4-16.2,7.1
		s-6,12.2-6,22.4c0,10.8,2,18.6,6.1,23.2c4.1,4.6,9.8,7,17.1,7c3.5,0,6.8-0.5,9.9-1.5c3.1-1,6.7-2.7,10.8-5.1v-9.4H1020V313h47.9
		V355.7z M1159,324.3c0,11.4-1,20.1-3,26.1c-2,6-6.1,11-12.2,15.2c-6.1,4.1-14,6.2-23.5,6.2c-10.1,0-18-1.4-23.5-4.1
		c-5.6-2.7-9.9-6.7-12.9-12c-3-5.3-4.8-11.8-5.4-19.5l29.6-4c0,4.4,0.4,7.7,1.2,9.8c0.7,2.1,2,3.9,3.7,5.2c1.2,0.9,2.9,1.3,5.1,1.3
		c3.5,0,6-1.3,7.6-3.9c1.6-2.6,2.4-6.9,2.4-13v-61.7h31V324.3z M1211.9,370.1h-31V269.9h31V370.1z M1393.2,370.1h-25.4v-76.4
		l-19.5,76.4h-23l-19.5-76.4v76.4h-25.4V269.9h40.7l15.7,61l15.6-61h40.7V370.1z M1507,348.1c-3.9,7.5-9.6,13.3-17.1,17.5
		s-16.7,6.3-27.9,6.3c-11.3,0-20.7-1.8-28.1-5.4c-7.4-3.6-13.4-9.3-18-17.1c-4.6-7.8-6.9-17.5-6.9-29.3c0-16.4,4.6-29.1,13.7-38.2
		c9.1-9.1,21.8-13.7,38.1-13.7c16.7,0,29.5,4.5,38.6,13.4s13.5,21.5,13.5,37.6C1512.9,331,1510.9,340.6,1507,348.1z M1623.6,348.1
		c-3.9,7.5-9.6,13.3-17.1,17.5s-16.7,6.3-27.9,6.3c-11.3,0-20.7-1.8-28.1-5.4c-7.4-3.6-13.4-9.3-18-17.1c-4.6-7.8-6.9-17.5-6.9-29.3
		c0-16.4,4.6-29.1,13.7-38.2c9.1-9.1,21.8-13.7,38.1-13.7c16.7,0,29.5,4.5,38.6,13.4s13.5,21.5,13.5,37.6
		C1629.5,331,1627.5,340.6,1623.6,348.1z M1731.4,356.4c-3.9,5.1-8.8,9-14.6,11.6s-13.2,3.9-22.2,3.9c-10.9,0-19.8-1.6-26.7-4.7
		c-6.9-3.2-12.9-8.7-17.9-16.7c-5-8-7.5-18.2-7.5-30.6c0-16.6,4.4-29.3,13.2-38.2c8.8-8.9,21.3-13.4,37.4-13.4
		c12.6,0,22.5,2.6,29.8,7.7c7.2,5.1,12.6,12.9,16.1,23.5l-27.3,6.1c-1-3.1-2-5.3-3-6.7c-1.7-2.4-3.9-4.2-6.4-5.5
		c-2.5-1.3-5.3-1.9-8.4-1.9c-7,0-12.4,2.8-16.1,8.5c-2.8,4.2-4.2,10.8-4.2,19.7c0,11.1,1.7,18.7,5.1,22.8c3.4,4.1,8.1,6.2,14.2,6.2
		c5.9,0,10.4-1.7,13.4-5c3-3.3,5.2-8.2,6.6-14.5l27.1,8.2C1738.2,344.9,1735.4,351.3,1731.4,356.4z"/>
</g>
<g>
	<g>
		<polygon class="st1" points="466.8,200 473.2,240 565.6,400 533.7,200 		"/>
	</g>
</g>
<g>
	<path d="M664.3,198.4l-1.8-6.3l24.3,0.4c5.6,0,8.5-3.1,8.5-8.8v-133H568.5v148.3h-6.3V44.7h139.3v140.2c0,9-4.3,13.5-12.8,13.5
		H664.3z M678.9,77.3v6.1h-93.6v-6.1H678.9z M667.2,107.7v54.2h-70.4v-54.2H667.2z M661.2,113.6h-58.5v42.5h58.5V113.6z"/>
	<path d="M766.2,109.1l-4.1,4.3c-7.2-9-16.9-18.5-29-28.4l4.3-4C748.9,90.4,758.6,99.8,766.2,109.1z M770,137.6
		c-8.6,21.6-18.4,41.9-29,60.8l-5.8-2.5c11.3-19.8,21.1-40,29.2-60.5L770,137.6z M771.6,67.7l-4.3,4.3c-7.6-8.8-17.5-18.2-29.9-28.1
		l4.1-4.1C753.4,49.2,763.5,58.4,771.6,67.7z M811.4,125.5v12.8c-0.2,16.6-2.9,29.7-7.9,39.6c-4.9,9-13,16.2-24.3,21.6l-3.2-5.2
		c10.4-5,18.2-11.9,23-20.9c4.1-9,6.3-20.7,6.3-35.1v-12.8H811.4z M834.4,55.3c-3.2-7.2-6.8-13.7-10.8-19.3l6.5-1.3
		c3.6,6.1,7.2,13,10.6,20.5h45.5v6.1h-16c-5,15.3-14.6,27.7-28.6,37.3c14,7.4,31.7,12.6,52.9,15.7l-2.3,5.6
		c-22.7-3.4-41.4-9.4-56-17.8c-14.9,8.6-33.8,14.9-56.9,18.9l-2.5-5.6c22-3.6,40-9,54-16.6c-14.8-9.7-25-22.3-31-37.4h-17.3v-6.1
		H834.4z M836.2,95.6c14-9,23.4-20.3,27.9-34.2h-58.7C811.5,75.5,821.8,87,836.2,95.6z M865.5,124.8v73.6h-6.1v-73.6H865.5z"/>
	<path d="M986,85.6c1.8-11.7,2.7-23.9,2.9-36.5V36.2h6.1v11.3c0,13.5-1.1,26.1-2.9,38h77.9v6.1h-74c12.4,44.3,38,78.1,76.7,101.5
		l-3.6,5c-39.6-24.3-65.7-59.6-78.3-105.7c-9.4,49.3-34.9,84.8-76.5,106.4l-3.8-5c40.7-20.2,65.3-54.2,74.3-102.2h-71.1v-6.1H986z"
		/>
	<path d="M1220.3,102.1v5.6c-12.8,8.3-27.2,16-43.2,23.6v13.9h71.3v6.1h-71.3v34.9c0,8.1-4.1,12.2-12.1,12.2h-22.7l-1.4-5.9
		c6.7,0,13.9,0.2,21.8,0.2c5.6,0,8.5-2.9,8.5-8.6v-32.8h-76v-6.1h76v-16.9c19.1-8.8,32.4-15.7,40-20.5h-87.3v-5.6H1220.3z
		 M1245,109.3h-6.1v-29h-133.9v29h-6.1V74.4h101.9c9-12.2,16.7-25.4,23-39.8l5.9,2.2c-7,15.1-14.4,27.7-22,37.6h37.3V109.3z
		 M1137,66.5l-5.6,2.7c-6.1-11-12.8-20.7-19.6-29.3l5.6-2.5C1124.4,46.1,1130.9,55.9,1137,66.5z M1178.9,64.5l-5.4,2.9
		c-5.4-11.5-11.2-21.6-17.3-30.4l5.6-2.7C1167.9,43.6,1173.7,53.7,1178.9,64.5z"/>
	<path d="M1316.6,69.4V54.1h-41.4v-5.8h41.4V36.1h5.9v12.2h23.9v5.8h-23.9v15.3h58.9V54.1h-24.1v-5.8h24.1V36.2h5.9v12.1h41.4v5.8
		h-41.4v15.3h21.1v45.5h-67.7c-1.4,4.7-3.6,9-6.1,13.3h94.1v5.8h-44.6c10.4,13.3,27,23.6,49.7,31l-2.3,5
		c-25.6-9.2-43.4-21.2-53.3-36h-47.3c-11.5,15.5-30.8,28.1-57.6,37.8l-2.7-5.4c25.4-8.6,43.4-19.4,54.2-32.4H1275v-5.8h53.8
		c2.9-4.3,4.9-8.8,6.3-13.3h-39.2V69.4H1316.6z M1325.1,161.5c-7.7,12.2-16.7,22.9-27,31.9l-4.7-3.2c10.3-8.6,19.1-19.1,26.5-31.1
		L1325.1,161.5z M1402.1,89.7V74.8h-99.9v14.9H1402.1z M1402.1,94.6h-99.9v15.3h99.9V94.6z M1321.3,198.9l-1.3-5.8
		c6.1,0.4,12.1,0.5,17.8,0.5c4.3,0,6.5-2,6.5-5.8v-43.7h5.9v45.2c0,6.3-3.6,9.5-10.4,9.5H1321.3z M1384.8,193.5l-5.8,1.6
		c-4-12.1-9-23.8-15.3-34.9l5.4-1.6C1374.9,168.7,1380.2,180.4,1384.8,193.5z M1412.6,190.5l-5.4,2.3c-5.8-12.6-12.1-23.8-18.9-33.5
		l5.4-1.6C1400.9,167.8,1407.2,178.8,1412.6,190.5z"/>
	<path d="M1483.8,93.1v82.6c6.7-5.4,13.9-12.2,21.8-20.3l1.6,6.5c-9.4,9.7-19.1,18.4-29.5,25.9l-2.5-5.6c1.6-1.8,2.5-3.4,2.5-4.9
		V99.2h-27.2v-6.1H1483.8z M1499.1,67l-4.3,4.1c-7.9-9-18.2-18.5-31.1-28.3l4.3-4.1C1480.2,48.1,1490.7,57.5,1499.1,67z M1599.8,44
		v63.9h-39.1v21.4h49.9v5.9H1569c8.5,18.4,23.6,34.9,45.5,49.3l-4,4.9c-22.7-16.2-38.3-34.4-46.8-54.2h-3.1v63.2h-5.9v-63.2h-2.9
		c-9.2,22.3-25,40.5-47.7,54.9l-3.2-5.2c21.6-13,36.9-29.5,45.9-49.7h-41.8v-5.9h49.7v-21.4h-38.7V44H1599.8z M1554.8,73.5V49.7
		H1522v23.8H1554.8z M1554.8,79.1H1522v23.2h32.8V79.1z M1560.7,73.5h33.3V49.7h-33.3V73.5z M1594,79.1h-33.3v23.2h33.3V79.1z"/>
	<path d="M1749.7,198l-1.6-6.1l18.2,0.4c5.8,0,8.6-3.1,8.6-9.2V51h-126v147.4h-6.3V44.9h138.6v139.7c0,9-4.3,13.5-13,13.5H1749.7z
		 M1687.8,127.1c-7.2,19.6-16.2,36.4-26.6,50l-4.1-4.7c10.8-14.6,19.6-31.7,26.5-51.3c-9.9-13.3-19.1-24.7-27.7-34l4-4
		c8.1,8.5,16.7,18.9,26.1,31.3c4.7-14.8,8.3-30.8,11-47.9l5.8,1.1c-3.2,19.4-7.4,36.9-12.4,52.6c7.6,10.4,15.5,22.1,23.8,34.9
		l-4.1,4.1C1702,147.5,1694.6,136.7,1687.8,127.1z M1741.1,130.9c-7.7,19.8-17.3,36.7-28.4,50.6l-4-4.5c11.5-14.8,21.1-32.2,28.4-52
		c-9.9-14.4-19.1-26.6-27.7-36.4l4.3-4c7.9,9,16.6,20.2,25.7,33.5c5.2-15.7,9.4-32.6,12.2-50.9l5.9,1.1c-3.6,20.7-8.3,39.4-14,56
		c7.7,11.5,15.8,24.5,24.5,38.9l-4.1,4.1C1755.8,153.9,1748.3,141.7,1741.1,130.9z"/>
</g>
<text transform="matrix(1 0 0 1 234.4785 -237.6006)" style="font-family:'PingFangTC-Thin-B5pc-H'; font-size:180px;">同济大学慕课网</text>
<g>
	<g>
		<polygon class="st1" points="266.5,0 400,400 467.1,400 400,0 		"/>
	</g>
</g>
</svg>
