<svg xmlns="http://www.w3.org/2000/svg" viewBox="0 0 48.19 48.19"><defs><style>.st3{fill:#e685a2;fill-rule:evenodd;}</style></defs><title>Tongji</title><path class="st3" d="M618.53,380.68a1.21,1.21,0,0,1-.28.6,3,3,0,0,1-.51.51l0.2,0.43a3.3,3.3,0,0,0,.77-0.77l0.79,1.84,0.72-.33-1.09-2.53" transform="translate(-600.12 -370.27)"/><path class="st3" d="M622.6,380.93a0.71,0.71,0,0,1-.78.1,0.5,0.5,0,0,1-.22-0.36,0.48,0.48,0,0,1,.08-0.39,0.63,0.63,0,0,1,.77-0.11,0.52,0.52,0,0,1,.25.38,0.56,0.56,0,0,1-.1.38m0.48-1.1a1.84,1.84,0,0,0-2,.22,0.78,0.78,0,0,0-.28.72,0.74,0.74,0,0,0,.45.6,1.45,1.45,0,0,0,.87.13,1.26,1.26,0,0,0,.7-0.34,1,1,0,0,1-.11.66c-0.24.21-.75,0.36-0.89,0l-0.76.17a0.7,0.7,0,0,0,.46.44,1.88,1.88,0,0,0,1.84-.43,1.41,1.41,0,0,0,.26-1.15A1.28,1.28,0,0,0,623.07,379.83Z" transform="translate(-600.12 -370.27)"/><path class="st3" d="M626.15,381a2,2,0,0,1-.16.69,0.48,0.48,0,0,1-.7.13,1,1,0,0,1-.16-0.92,2,2,0,0,1,.16-0.69,0.46,0.46,0,0,1,.7-0.13,1.05,1.05,0,0,1,.16.92m-1.31-1.29a1.48,1.48,0,0,0-.53,1.08,1.43,1.43,0,0,0,.26,1.14,1.64,1.64,0,0,0,1.88.23,1.74,1.74,0,0,0,.25-2.23A1.68,1.68,0,0,0,624.84,379.75Z" transform="translate(-600.12 -370.27)"/><path class="st3" d="M628.17,380l-0.18.45,1.68,0.67a4.49,4.49,0,0,0-1.22.65,2.59,2.59,0,0,0-.75,1l0.7,0.27a2.62,2.62,0,0,1,.48-0.7,3.44,3.44,0,0,1,1.69-1l0.13-.35" transform="translate(-600.12 -370.27)"/><path class="st3" d="M640.37,382a3.88,3.88,0,0,0-.62-0.64,0.24,0.24,0,0,0-.26,0c-0.06.07-.17,0.17-0.2,0.21a0.32,0.32,0,0,0,.18.22,1.15,1.15,0,0,0,.29.24c0.09,0,.26,0,0.22.13a0.51,0.51,0,0,1-.34.25,1.93,1.93,0,0,1-.69-0.55,0.82,0.82,0,0,0-.3-0.11,0.11,0.11,0,0,0-.16.07c0,0.07.07,0.14,0.09,0.22a0.49,0.49,0,0,0,.25.22,2.08,2.08,0,0,1,.44.4c0,0.09.12,0.17-.1,0.27a1,1,0,0,1-.71.1,0.68,0.68,0,0,1-.4-0.4c0-.12-0.12,0-0.17.15a0.78,0.78,0,0,0-.12.34,0.27,0.27,0,0,0,.25.2,3.38,3.38,0,0,0,.83.13,1.6,1.6,0,0,0,.67-0.34,0.45,0.45,0,0,1,.18.13,0.59,0.59,0,0,0,.31.29,0.21,0.21,0,0,0,.21-0.31,4.31,4.31,0,0,0-.29-0.37,0.22,0.22,0,0,1,.11-0.22,1.66,1.66,0,0,0,.6,0,0.59,0.59,0,0,0,.1-0.33s-0.31-.23-0.36-0.31m2.62-.93a2.7,2.7,0,0,0-.72-0.37c-0.17-.11,0-0.2,0-0.26s-0.17,0-.26-0.12a0.15,0.15,0,0,1,0-.21s0.06-.1,0-0.17-0.09,0-.31,0-0.24,0-.24.09,0,0.16-.09.17a0.51,0.51,0,0,0-.36.2,1.09,1.09,0,0,0-.21.26,0.13,0.13,0,0,0,.14,0,3.23,3.23,0,0,0,.45-0.17,0.76,0.76,0,0,1,.4-0.09,0.12,0.12,0,0,1,0,.17,0.15,0.15,0,0,1-.16,0,1.06,1.06,0,0,0-.53.18c-0.12.09-.16,0.18-0.09,0.26a2.45,2.45,0,0,0,.87.07,0.53,0.53,0,0,1,.31-0.21,0.61,0.61,0,0,1,.33.17c0.09,0.06.15,0,.13,0.13s-0.13.08-.24,0.1a0.09,0.09,0,0,1-.13-0.1c0-.09,0-0.1-0.13-0.09a2.35,2.35,0,0,0-.44.17,6.31,6.31,0,0,1-.66.09,4.22,4.22,0,0,1-.56-0.69,0.19,0.19,0,0,1,0-.21,4.82,4.82,0,0,1,1-.57,0.39,0.39,0,0,0,.29-0.38c0-.16-0.32-0.07-0.46,0a3.49,3.49,0,0,0-.59.48,0.72,0.72,0,0,1-.29.21,1.11,1.11,0,0,1-.17-0.37c0-.09-0.1-0.09-0.23-0.06a3.59,3.59,0,0,0-.6.39,1.7,1.7,0,0,0-.31.17,0.15,0.15,0,0,0,0,.21,0.48,0.48,0,0,0,.39,0,2,2,0,0,0,.28-0.11,4.9,4.9,0,0,1,.43.37c0.15,0.11.65,0.73,0.75,0.8a2.38,2.38,0,0,1,.59.66,0.08,0.08,0,0,1,0,.13c-0.15.09-.12,0.09-0.11,0.15a1.49,1.49,0,0,0,.43.33,0.61,0.61,0,0,0,.43-0.1c0-.07,0-0.15-0.1-0.21a0.81,0.81,0,0,0-.2-0.34,4.62,4.62,0,0,1-.65-0.72,0.66,0.66,0,0,1,.43,0,0.84,0.84,0,0,0,.21.21,0.45,0.45,0,0,0,.18,0,2.78,2.78,0,0,1,.5,0,0.5,0.5,0,0,0,.51-0.21A0.36,0.36,0,0,0,643,381.08Zm-11.82-4.61a0.51,0.51,0,0,0-.22.27,0.93,0.93,0,0,0,0,.38,1.43,1.43,0,0,0,.32.6c0.11,0,.2-0.09.33-0.31s0.14-.24,0-0.5A0.74,0.74,0,0,0,631.16,376.46Zm0.94-2.74a2.92,2.92,0,0,0-.93.71c-0.28.37-.34,0.49-0.45,0.42a1.45,1.45,0,0,1-.28-0.12,2,2,0,0,0-.55-0.13,0.49,0.49,0,0,0-.45.24c-0.07.13,0,.13,0.11,0.23a1.84,1.84,0,0,0,.64.17c0.09,0,.2,0,0.17.09a5.71,5.71,0,0,1-.72.59c-0.18.13-.56,0.4-0.65,0.49a0.17,0.17,0,0,0,.13.28,5.39,5.39,0,0,1,.6-0.22,1.8,1.8,0,0,0,.72-0.34c0.17-.12.5-0.47,0.56-0.5s0.72,0.43.88,0.42a1.06,1.06,0,0,0,.32-0.24c0.12-.1.06-0.21-0.11-0.22a2.63,2.63,0,0,1-.69-0.28c-0.2-.1,0-0.2,0-0.31s0.56-.53.81-0.77a0.49,0.49,0,0,0,.26-0.44A0.35,0.35,0,0,0,632.11,373.72Zm-11.58.91a0.35,0.35,0,0,0-.3.17c-0.12.1,0,.6-0.21,0.81a1,1,0,0,1-.1-0.2,0.36,0.36,0,0,0-.16-0.23c-0.09,0-.1.06-0.15,0.15a1.29,1.29,0,0,1-.26.31c-0.2.11-.12-0.28-0.26-0.43s-0.22.12-.21,0.33,0.07,0.31.09,0.43a2.71,2.71,0,0,0,0,.36,2.32,2.32,0,0,0,.23.59c0.12,0.16.28,0.09,0.21-.26a1.35,1.35,0,0,1-.1-0.72,0.19,0.19,0,0,1,.31,0,3.64,3.64,0,0,1,.17.4c0.07,0.09.17-.07,0.25-0.17s0-.21.08-0.4a2.59,2.59,0,0,1,.11-0.28c0.06-.16.07-0.29,0.17-0.29a0.34,0.34,0,0,1,.29.26c0,0.12,0,.21.09,0.38a4.89,4.89,0,0,1,0,.73,0.47,0.47,0,0,0,0,.22c0.09,0.07.15,0.1,0.22-.42a2.89,2.89,0,0,0,0-1A0.9,0.9,0,0,0,620.53,374.63Zm1.29-1.08a0.4,0.4,0,0,0-.22,0,3.62,3.62,0,0,1-.81,0,0.18,0.18,0,0,1-.15-0.11,0.51,0.51,0,0,1,0-.23,0.21,0.21,0,0,0-.13-0.2,0.35,0.35,0,0,0-.27.2,0.32,0.32,0,0,0-.12.34,0.19,0.19,0,0,0,.06.23,1.47,1.47,0,0,0,.46.07,3.1,3.1,0,0,0,.91,0,1.07,1.07,0,0,0,.37-0.22C622,373.7,622,373.6,621.81,373.55Zm-4.28,3.11v-0.54c0-.12-0.28-0.45-0.48-1,0-.12-0.17-0.12-0.18,0a12.18,12.18,0,0,1,.29,1.29c0,0.39,0,.78.09,1.17a1,1,0,0,0,.48.6c0.09,0,.13-0.1,0-0.44S617.61,377,617.53,376.66Zm-0.37-2A0.44,0.44,0,0,0,617,374c-0.11,0,0,.21,0,0.43a1.64,1.64,0,0,1,0,.33C616.87,374.84,616.9,375.09,617.16,374.69Zm1.88-.6a0.27,0.27,0,0,1,.06.21,1,1,0,0,1-.15.31,0.25,0.25,0,0,0,0,.32c0.26,0.09.32-.37,0.32-0.75a1.72,1.72,0,0,1,0-.43,0.24,0.24,0,0,1,.27-0.18,4.32,4.32,0,0,0,.21.5,1,1,0,0,0,.36.4c0.37,0.12.21-.15,0.21-0.35s-0.07,0-.09-0.07a0.27,0.27,0,0,1-.22,0,2,2,0,0,1-.28-0.62,2.57,2.57,0,0,1,.26-0.27c0.06-.1,0-0.26,0-0.24s-0.61.66-.69,0.72a0.11,0.11,0,0,1-.18,0,1,1,0,0,1,.32-0.86c0.12-.17.09-0.18,0-0.23a0.49,0.49,0,0,0-.27.06,0.22,0.22,0,0,1-.22-0.09c0-.09,0-0.18,0-0.27s-0.4-.09-0.56.1a1.93,1.93,0,0,0-.4,1.25c0.17,0.12.39-.31,0.56-0.48a0.66,0.66,0,0,1,.44-0.22c0.17,0-.23.69-0.1,1.19a0.23,0.23,0,0,1-.28.2,1.15,1.15,0,0,0-.37-0.39,0.34,0.34,0,0,0-.06.46c0.07,0.21.46,0.1-.13,0.89a0.78,0.78,0,0,0-.13.53c0,0.24,0,.43.21,0.45a0.53,0.53,0,0,0,.38-0.29,2.16,2.16,0,0,0,.22-0.73,3.74,3.74,0,0,1,0-.66A1.2,1.2,0,0,1,619,374.09Zm-1.75-.27a0.18,0.18,0,0,0,.06-0.09,1.51,1.51,0,0,0-.45-0.51,1.11,1.11,0,0,0-.12.16c-0.07.11,0,.26,0.22,0.4A1.15,1.15,0,0,0,617.3,373.82Zm-8.21,7.75a1.3,1.3,0,0,0-.44.09c-0.16.17-.2,0.28-0.43,0.51,0,0,0,.18,0,0.28a0.71,0.71,0,0,0,.33.26,0.4,0.4,0,0,0,.55-0.18c0-.16-0.17-0.24-0.23-0.27v-0.09H609s0.29,0.1.38,0.1a0.78,0.78,0,0,0,.07-0.7C609.34,381.45,609.25,381.53,609.08,381.57Zm-0.75-.38a0.38,0.38,0,0,0-.21-0.24,0.57,0.57,0,0,0-.43.46c0,0.1,0,.21.12,0.18A0.75,0.75,0,0,0,608.34,381.19Zm1.85-.37a6.29,6.29,0,0,0-1.15-1.08,1.22,1.22,0,0,0-1.19-.38,0.66,0.66,0,0,0-.23.55,0.94,0.94,0,0,1-.31.38,3.35,3.35,0,0,0-.64.61c-0.07.12-.28,0.07-0.33,0.17a0.43,0.43,0,0,0-.06.32,5.87,5.87,0,0,0,1.21,1.54l0.51,0.48a4.26,4.26,0,0,0,.87.77c0.17,0.06.43,0,.38-0.09a10.27,10.27,0,0,0-1-1c-0.31-.43-0.69-0.72-1-1.11-0.07-.09-0.16-0.25-0.23-0.34a0.37,0.37,0,0,1,0-.28c0.06-.1.17-0.22,0.26-0.35,0.2-.29.4-0.55,0.54-0.81a0.72,0.72,0,0,1,.23-0.22,0.67,0.67,0,0,1,.46,0,5.86,5.86,0,0,1,1.14,1,1.28,1.28,0,0,1,.56.75c0,0.16-.16.11-0.17,0.17s-0.07.37,0.32,0.49a0.52,0.52,0,0,0,.29,0c0.07,0,0-.13,0-0.29A3.15,3.15,0,0,0,610.18,380.82Z" transform="translate(-600.12 -370.27)"/><path class="st3" d="M636.22,391.06a1.42,1.42,0,0,1-.65,1,1.69,1.69,0,0,0-.65,1,0.13,0.13,0,0,1-.12.07,0.69,0.69,0,0,1-.16-0.57,2,2,0,0,1,.34-0.81,5.5,5.5,0,0,1,.65-0.88c0.43-.39.6,0,0.59,0.22m-0.36,8.19c0,1.55,0,2.3-.66,3.27-0.27.41-.58,0.76-0.88,1.14-0.71.56-.55,0.15-0.2-0.43,1-1.18,1.08-2.89,1.05-4.36s-0.15-2.95,0-2.69A9.56,9.56,0,0,1,635.86,399.24Zm-3,4.69a6.43,6.43,0,0,1-1.43,1.14,5.56,5.56,0,0,1-1.46.56h-0.11c-0.12,0-.17-0.18-0.15-0.54a3,3,0,0,1,.15-0.84c0-.13.07-0.26,0.11-0.39,0.11-.43.26-0.82,0.32-1.13a10,10,0,0,1,.49-1.91,0.92,0.92,0,0,1,.31-0.37l0.34-.16a4,4,0,0,1,1.22-.2c0.46,0,1,1.74,1,2.11A4.26,4.26,0,0,1,632.84,403.93Zm-3.35-1.38a1.24,1.24,0,0,1-.51-0.69,1,1,0,0,1,0-1.21,0.8,0.8,0,0,1,.93-0.2c0.2,0.07.31,0.21,0.17,0.76-0.07.35-.12,0.61-0.17,0.81A0.83,0.83,0,0,1,629.49,402.55Zm0,1.58c-0.26.72-.43,2-0.82,2.07a1.53,1.53,0,0,1-.24,0,1.17,1.17,0,0,1-1-.64,0.9,0.9,0,0,1,.43-1.1c0.22-.15.45-0.3,0.67-0.46a6.77,6.77,0,0,1,.56-0.41,0.32,0.32,0,0,1,.43,0,0.42,0.42,0,0,1,0,.29C629.5,404,629.47,404,629.45,404.13Zm-1.15-6.7a12.57,12.57,0,0,1,.32-1.52,7.06,7.06,0,0,1,.44-1.3c0.15-.29.26-0.12,0.43,0a4.8,4.8,0,0,0,1.51.83,1.48,1.48,0,0,0,.42-0.09,11.26,11.26,0,0,1-.34,2c-0.12.4-.17,1.2-0.31,1.69a0.68,0.68,0,0,1-.2.38,1.77,1.77,0,0,1-1.08.06C628.48,399.34,628.2,398.35,628.3,397.43Zm2.21-5.42a4.43,4.43,0,0,1,.89-0.88,5,5,0,0,1,.79-0.58c0.5-.28.54,0.28,0.43,0.6s-0.49,1.52-.61,2a3.2,3.2,0,0,1-.46,1.47,0.86,0.86,0,0,1-.8-0.09,1.43,1.43,0,0,1-.62-1.16A1.77,1.77,0,0,1,630.51,392Zm-3.72,14a0.43,0.43,0,0,1-.37.43l-0.19.06c-0.35.11-.54,0-0.43-0.2a1.61,1.61,0,0,1,.43-0.52,0.57,0.57,0,0,1,.27-0.09A0.24,0.24,0,0,1,626.79,406Zm-4.05.22a1.79,1.79,0,0,1,.18-1.52c0.07-.19.12-0.39,0.17-0.58,0.25-.94.33-0.91,0.46-1.58a1.56,1.56,0,0,1,.43-1.11,0.38,0.38,0,0,1,.42.05c0.15,0.09.3,0.22,0.49,0.33a1.13,1.13,0,0,1,.75,1.16,5.5,5.5,0,0,0,.62,1.66c0.16,0.48-1,1.35-1.34,1.5S623.07,406.69,622.74,406.2Zm-0.21-5.46c0-.26.61,0.21,0.69,0.29s0.16,0.26,0,.71a1.89,1.89,0,0,1-.29,1h0a1.44,1.44,0,0,1-.31-1A2.18,2.18,0,0,1,622.53,400.74Zm-0.22,4.05a1.48,1.48,0,0,1-.59,1.15c-0.46.1-.6-0.6-0.69-0.89a12.45,12.45,0,0,0-.48-1.21c-0.11-.27-0.26-0.37-0.06-0.61s0.22-.12.66,0.09,0.64,0.36,1,.53S622.49,404.13,622.31,404.79Zm-1.87,1.09a4.06,4.06,0,0,1-1.47-.07,0.34,0.34,0,0,1-.29-0.53,2.58,2.58,0,0,1,.29-0.58,2.38,2.38,0,0,1,.6-0.61,0.2,0.2,0,0,1,.16,0c0.06,0,.63,1.35.74,1.57A0.19,0.19,0,0,1,620.44,405.88Zm-2.58-1.15a1.06,1.06,0,0,1-.24.15c-0.45.17-.53-0.15-0.82-0.32s-0.61-.16-0.58-0.47a14.09,14.09,0,0,1,.51-1.66c0.06-.22.6,0.21,0.78-0.21a9.91,9.91,0,0,0-.36-1.08,0.68,0.68,0,0,1,.7-0.15,1,1,0,0,1,1.14.64,3.1,3.1,0,0,1,.31,1.36A5.48,5.48,0,0,1,617.86,404.73ZM616,402.86a1,1,0,0,1-.39.76,1.35,1.35,0,0,1-.4-0.15,2,2,0,0,1-.78-0.92c-0.1-.33-0.39-0.51.11-0.64a2.83,2.83,0,0,1,.69,0c0.4,0,.82.13,0.85,0.13C616.24,402.17,616,402.46,616,402.86Zm-1.27-6.79a4,4,0,0,1,.28-1.45,1.51,1.51,0,0,1,.35-0.27,0.44,0.44,0,0,1,.65.14,3.37,3.37,0,0,0,1.07,1.09,1.93,1.93,0,0,0,.81.09c0.13,0,.25,0,0.22,0s-0.1.51-.22,1a12.27,12.27,0,0,1-.38,1.25c-0.32.82-.49,2.09-0.73,2.13a2.31,2.31,0,0,1-1.47-1.18A3.89,3.89,0,0,1,614.7,396.06Zm1.8-3.62a3.15,3.15,0,0,1,2.47-1.26c0.29,0,.48,0,0.48.1A7.14,7.14,0,0,1,619,393c-0.1.31-.24,0.66-0.36,1-0.22.69,0,.91-0.56,1a1.2,1.2,0,0,1-1.27-.84C616.52,393.7,615.92,393.5,616.5,392.44Zm4.53,3.38a2.79,2.79,0,0,1,.37-1.36h0a0.29,0.29,0,0,1,.12-0.07c0.31-.07,1.17.89,1.55,1.18a4.43,4.43,0,0,0,1.09.14c0.08,0,.23,0,0.23.13a9.71,9.71,0,0,1-.14,1l-0.08.45a8.1,8.1,0,0,1-.68,2.55,1.08,1.08,0,0,1-.43-0.15A4.17,4.17,0,0,1,621,395.82Zm1.83-4.09a3.29,3.29,0,0,1,1.32-1c0.29-.13,1.69-0.67,1.76-0.13a2.93,2.93,0,0,1-.29,1.46c-0.39,1.09-.72,2.88-1,3a1.5,1.5,0,0,1-1.37-.47C622.77,393.71,622.14,392.64,622.86,391.72Zm14.42-3.33a20.39,20.39,0,0,0-3.63-4,8.55,8.55,0,0,0-2.07-1.36,4.27,4.27,0,0,0-.82-0.26c-0.51-.11-0.53,0,0,0.32l0.65,0.34a12.23,12.23,0,0,1,3.54,4,8.6,8.6,0,0,1,1,2.31,3.77,3.77,0,0,0-2,2.44c-0.43,1.71-.24,8.79-0.24,8.79a5.41,5.41,0,0,0-.75-1.71c-0.25-.1-1.05.16-1.59,0h0c-0.29-.09.4-2.79,0.65-3.78a1.15,1.15,0,0,0,.6-0.82,4.22,4.22,0,0,1-.26-0.62,14.48,14.48,0,0,1,1.17-3.39c1.54-.49,0-0.78,0-0.78a2.12,2.12,0,0,0-1,0,7.44,7.44,0,0,0-.76.33,2.71,2.71,0,0,0-.37-0.6,2.59,2.59,0,0,0-1.48-1,1.06,1.06,0,0,0-.7.15c-0.51.54-.2,0.81,0.26,0.94a8.3,8.3,0,0,1,1.27.39,2.7,2.7,0,0,0,.58.32l-0.58.32a5.88,5.88,0,0,0-1.81,1.46,22.55,22.55,0,0,0-2.23,4.54,6.77,6.77,0,0,0,.29,4.33c0.31,0.51,1.25,1.31,1,2a1.94,1.94,0,0,1-1,1.06c-0.26,0-.47-1.84-0.65-2.35a1.35,1.35,0,0,0-.27-0.32,12.83,12.83,0,0,0-1.87-1.3,0.4,0.4,0,0,1-.06-0.22v-0.21c0.06-.92.69-2.88,0.81-3.6,0-.12,0-0.29.1-0.49s0.58,0,.46-0.69a5,5,0,0,1-.11-0.58c0.26-.84.54-1.79,0.78-2.5a0,0,0,0,1,0,0,8,8,0,0,1,.4-1.06,1.46,1.46,0,0,1,.82-0.45c0.4,0,.35-0.27.13-0.51a0.94,0.94,0,0,0-.43-0.16,3.94,3.94,0,0,0-2.21.1,5.38,5.38,0,0,1-1.44.23c-0.25.06-.83-1-1.08-1.21a0.91,0.91,0,0,0-1-.17,0.75,0.75,0,0,0,0,1,3.78,3.78,0,0,0,.84.21,0.57,0.57,0,0,1,.46.69,15.3,15.3,0,0,1-1.1,1.46c-1.15,1.58-2.43,3.94-1.85,5.91a11.4,11.4,0,0,0,1.25,2.67,3.45,3.45,0,0,1,.33,1.35c0,0.42-.68.38-1,0.41s-0.54,0-.67-0.81a4.23,4.23,0,0,0-.16-0.67h0c-0.28-.7-1.13-0.48-1.71-0.48a0.9,0.9,0,0,1-.38,0,5.54,5.54,0,0,1,.38-1.92c0.27-1,.64-2.18.78-2.78a0.55,0.55,0,0,1,.33-0.1,0.29,0.29,0,0,0,.16-0.09,2,2,0,0,0,0-.51,0.23,0.23,0,0,0-.21-0.15,0.1,0.1,0,0,1,0-.12c0-.07,0-0.14,0-0.21,0.2-.63.41-1.25,0.62-1.88s0.29-.85.31-0.9a0.54,0.54,0,0,1,.46-0.09,0.39,0.39,0,0,0,.2-0.06,0.44,0.44,0,0,0-.09-0.69,1.85,1.85,0,0,0-.91-0.14H619c-0.44,0-.89,0-1.11,0-0.6-.2-0.3-0.86-0.77-1.15-1-.59-1.19.22-0.87,0.61s0.69,0.21.75,0.86c0,0.23-2.51,2.39-2.89,3a7.75,7.75,0,0,0-.77,3.73,3.89,3.89,0,0,0,1.09,2.48,3,3,0,0,0,.77.55h0a1.77,1.77,0,0,1,.7.45,1.24,1.24,0,0,1-.7.1,2.69,2.69,0,0,0-.53,0,6.91,6.91,0,0,0-.91.28,3.46,3.46,0,0,1-1.68-2.09c-0.29-1.11.61-3.43,0.72-4.11s-0.26-4.76-.26-5.13a1.16,1.16,0,0,1,1.29-.82,2.26,2.26,0,0,1,1.35.56h0a0.26,0.26,0,0,0,.18,0c0.23,0,.28-0.61-0.18-1.22a0,0,0,0,1,0,0l-0.17-.18c-0.64-.69-1.25-0.43-1.42-0.72s0.33-.36.78-0.82a1.24,1.24,0,0,0,.11-1.6c-0.33-.59-1.68-0.86-1.62-0.5a2.43,2.43,0,0,1,.43,1.32c-0.13.88-.78,1-1.43,1.64s-1.29.82-1,2.86a24.29,24.29,0,0,1,.07,6c-0.25,1.74-.72,2.79,0,4.46s3.83,4.9,3.83,4.9-0.13.38-.27,0.71,0.17,0.4.36,0.4a0.81,0.81,0,0,0,.31-0.37c0.11-.22.21-0.45,0.21-0.45a12.88,12.88,0,0,0,2.47,1.37,7.85,7.85,0,0,0,2.61.55c0.51,0,.75.09,0.66,0.29s-0.06.31-.13,0.44a4.32,4.32,0,0,1-.12.42,0.4,0.4,0,0,0,.6,0,1.37,1.37,0,0,0,.21-0.61,1.21,1.21,0,0,1,.17-0.46c1.49,0.11,2.95.06,4.44,0.06H628a1.73,1.73,0,0,1-.11.45,0.57,0.57,0,0,0,0,.43,0.61,0.61,0,0,0,.56,0,2.68,2.68,0,0,0,.31-1,3,3,0,0,1,.59-0.15,10.14,10.14,0,0,0,3.31-1.56,14.45,14.45,0,0,0,3.6-3.61,11.25,11.25,0,0,0,1-2.58,4.3,4.3,0,0,0-.32-2.56c-0.34-1.08-.75-2.53-1-3.43a3,3,0,0,1,0-2c0.26-.39.29-0.43,0.66-0.23s0.48,0.56.34,2.13,0,2.06.48,1.05a7.75,7.75,0,0,0,.4-2.57,5.61,5.61,0,0,1,.34-1.54A5.66,5.66,0,0,0,637.28,388.4Z" transform="translate(-600.12 -370.27)"/><path class="st3" d="M646.07,395v0.11c-0.06.35-.18,0.35-0.51,0.33l-0.84,0-1.21-.91a1.05,1.05,0,0,1-.54-0.71l0-.06h-0.11l-0.09,1.16h0.11a0.93,0.93,0,0,1,0-.21,0.28,0.28,0,0,1,.4-0.05l0.18,0.12,1,0.73-1.14.61c-0.16.08-.36,0.23-0.49,0a0.33,0.33,0,0,1,0-.21v-0.09h-0.09l-0.1,1.43h0.09a0.35,0.35,0,0,1,0-.14,0.93,0.93,0,0,1,.5-0.43l1.47-.82,0.79,0c0.27,0,.49,0,0.47.39v0.12h0.09l0.1-1.42m-0.84,4.64a0.32,0.32,0,0,1-.17.24,0.51,0.51,0,0,1-.39,0l-2.49-.65,0.12-.46a0.79,0.79,0,0,1,.16-0.31,0.6,0.6,0,0,1,.56-0.13l0-.09-0.77-.17-0.72,2.66L642.4,401l0-.1a0.62,0.62,0,0,1-.32-0.18,0.43,0.43,0,0,1-.12-0.26,3.34,3.34,0,0,1,.15-0.75l2.48,0.67c0.28,0.07.47,0.15,0.38,0.48l0,0.12h0.11l0.36-1.37-0.09,0Zm-1.17,3.46c-0.15.3-.36,0.23-0.6,0.09l-1.93-1a0.84,0.84,0,0,1-.33-0.23,0.54,0.54,0,0,1,.09-0.43l-0.09,0-0.65,1.29,0.08,0,0-.11c0.18-.3.35-0.24,0.61-0.09l1.95,1c0.26,0.12.43,0.25,0.28,0.55l-0.06.12,0.09,0,0.66-1.29-0.09,0Zm-2.82,2.09a9.31,9.31,0,0,1-1.51.61,0.42,0.42,0,0,1-.29-0.06,0.66,0.66,0,0,1,.28-1.09,1.05,1.05,0,0,1,1,.09l0.06-.06-1-.67,0,0.07a0.22,0.22,0,0,1,.07.26,1.48,1.48,0,0,1-.17.12,1.14,1.14,0,0,0-.62,1.11,0.84,0.84,0,0,0,1.14.69,5,5,0,0,0,.66-0.28,5,5,0,0,1,.56-0.26,0.61,0.61,0,0,1,.55,0c0.5,0.32.09,1-.31,1.2a1,1,0,0,1-.43.11,2.18,2.18,0,0,1-.55-0.17l0,0.06,0.94,0.67,0-.07a0.24,0.24,0,0,1-.09-0.13,0.1,0.1,0,0,1,0-.1,0.8,0.8,0,0,1,.23-0.21,1.3,1.3,0,0,0,.65-1.2A0.88,0.88,0,0,0,641.32,405.24Zm-3.66,4-0.24-.26-0.72-.76a0.78,0.78,0,0,1,1.25-.29,0.6,0.6,0,0,1,.2.55A1.22,1.22,0,0,1,637.66,409.27Zm0.37-.13,1.91,0.34,0.65-.62-0.07-.06a0.81,0.81,0,0,1-.4.2,1.46,1.46,0,0,1-.6,0l-1.19-.21a0.87,0.87,0,0,0,0-1.2c-0.54-.54-1.16-0.09-1.6.36l-0.88.84,0.07,0.06,0.09-.08a0.29,0.29,0,0,1,.27-0.11,0.62,0.62,0,0,1,.33.23l0.82,0.86,0.68,0.7c0.28,0.31.3,0.42,0,.71l0.06,0.06,1-1-0.07-.07c-0.24.3-.43,0.26-0.7,0l-0.67-.7Zm-1.63,2.25a1.26,1.26,0,0,1-.11.84c-0.24.2-.54,0.37-0.81,0.55s-0.31,0-.45-0.17l-0.6-.92,0.62-.4c0.37-.22.46-0.12,0.72,0.13l0.06,0-0.64-1-0.09,0c0.22,0.35.12,0.48-.17,0.71l-0.61.39-0.72-1.11,0.77-.5a1.39,1.39,0,0,1,.31-0.17,0.42,0.42,0,0,1,.25,0,1.11,1.11,0,0,1,.29.24l0.09,0-0.43-.6-2.18,1.4,0,0.08a0.6,0.6,0,0,1,.39-0.15,0.7,0.7,0,0,1,.28.31l1.2,1.81a0.47,0.47,0,0,1,.12.45,0.63,0.63,0,0,1-.16.17l-0.1.06,0,0.07,2.18-1.39-0.23-.87Zm-5.2.11,0,0.09a0.4,0.4,0,0,1,.2,0c0.25,0,.24.22,0.22,0.54l-0.11,2.08-1.46-1.59c-0.29-.29-0.38-0.45,0-0.64v-0.09l-1.31.45,0,0.09a0.53,0.53,0,0,1,.65.22l2.14,2.35,0.09,0,0.18-3.08a0.59,0.59,0,0,1,.31-0.61l0-.09Zm-3.29,3.77-0.42-2.14a0.64,0.64,0,0,1,0-.4,0.4,0.4,0,0,1,.27-0.17h0.12v-0.08l-1.42.27v0.09c0.42,0,.46,0,0.56.4l0.42,2.14c0.08,0.3.07,0.47-.26,0.56h-0.11l0,0.08,1.41-.27,0-.09C628,415.7,628,415.67,627.91,415.27Zm-3.34-2.35h0.12a0.31,0.31,0,0,1,.27.12,0.76,0.76,0,0,1,0,.37l-0.06,2L623,412.76l-0.9,0v0.11a0.78,0.78,0,0,1,.65.38l-0.09,2.33a0.89,0.89,0,0,1-.06.36,0.4,0.4,0,0,1-.32.12h-0.12v0.09l1.17,0V416h-0.12a0.32,0.32,0,0,1-.27-0.12,0.52,0.52,0,0,1-.06-0.39l0.07-2.06,2.09,2.78h0.09l0.11-2.83a0.63,0.63,0,0,1,.06-0.37,0.47,0.47,0,0,1,.42-0.11v-0.09l-1.16-.06v0.11Zm-4.22-.38,0.12,0a0.4,0.4,0,0,1,.26.17,0.72,0.72,0,0,1,0,.4l-0.33,1.32a2.3,2.3,0,0,1-.27.72,1.06,1.06,0,0,1-1,.26c-0.71-.15-0.7-0.73-0.58-1.33l0.37-1.42a0.62,0.62,0,0,1,.15-0.34,0.35,0.35,0,0,1,.32-0.06l0.13,0v-0.09l-1.41-.35,0,0.09a0.48,0.48,0,0,1,.37.21,0.6,0.6,0,0,1,0,.39L618,413.83a2.89,2.89,0,0,0-.11.83,1.4,1.4,0,0,0,2.36.61,2.23,2.23,0,0,0,.27-0.73l0.34-1.32a0.72,0.72,0,0,1,.13-0.34,0.33,0.33,0,0,1,.33-0.09l0.13,0,0-.09-1.17-.29v0.08ZM614,409.93l0.1,0.07a0.41,0.41,0,0,1,.17.16,0.33,0.33,0,0,1,0,.15,2.18,2.18,0,0,1-.13.31l-1.1,1.87a0.7,0.7,0,0,1-.23.29,0.36,0.36,0,0,1-.33,0l-0.1-.07,0,0.08,1.25,0.72,0-.08-0.1,0a0.79,0.79,0,0,1-.17-0.17,0.22,0.22,0,0,1,0-.13,0.75,0.75,0,0,1,.13-0.32l1.1-1.86a0.76,0.76,0,0,1,.23-0.3,0.37,0.37,0,0,1,.33,0l0.1,0,0-.07-1.24-.71Zm-1.16-.65a0.39,0.39,0,0,1,.3.11l0.1,0.06,0.06-.06-1.11-.92-0.07.07,0.1,0.08a0.67,0.67,0,0,1,.15.18,0.73,0.73,0,0,1,0,.16,1.48,1.48,0,0,1-.18.27L610.74,411a0.38,0.38,0,0,1-.23.18,0.13,0.13,0,0,1-.15,0,0.2,0.2,0,0,1,0-.2,0.62,0.62,0,0,0,0-.31,0.23,0.23,0,0,0-.06-0.13,0.31,0.31,0,0,0-.21-0.07,0.65,0.65,0,0,0-.16.11,0.35,0.35,0,0,0-.06.29,0.52,0.52,0,0,0,.22.32,0.6,0.6,0,0,0,.48.17,0.88,0.88,0,0,0,.48-0.13,1.49,1.49,0,0,0,.46-0.43l1-1.26A0.8,0.8,0,0,1,612.84,409.28ZM610,408.8l0.06,0-0.83-1-0.07.07a0.47,0.47,0,0,1,.13.23,0.21,0.21,0,0,1,0,.17,0.8,0.8,0,0,1-.23.24l-0.75.64a2.69,2.69,0,0,1-.32-0.17,1.86,1.86,0,0,1-.28-0.25,1.2,1.2,0,0,1-.26-0.6,1.42,1.42,0,0,1,.15-0.75,2.09,2.09,0,0,1,.54-0.71,2,2,0,0,1,1-.44,1.13,1.13,0,0,1,1,.43,1,1,0,0,1,.27.77,1.41,1.41,0,0,1-.23.65l0,0.07,0.77-.76-0.07-.07a0.4,0.4,0,0,1-.15.09,0.14,0.14,0,0,1-.09,0,0.52,0.52,0,0,1-.09-0.2c-0.07-.17-0.12-0.31-0.17-0.4s-0.11-.17-0.2-0.28a1.8,1.8,0,0,0-.72-0.53,1.84,1.84,0,0,0-2.4,1.32,1.8,1.8,0,0,0,.49,1.54,2.46,2.46,0,0,0,.44.43,3.51,3.51,0,0,0,.53.27l0.79-.65a0.79,0.79,0,0,1,.31-0.21,0.31,0.31,0,0,1,.27.13Zm-1.87-4.5a0.37,0.37,0,0,1,.26.22l0,0.1,0.09,0L608,403.54l-0.09,0a0.5,0.5,0,0,1,.1.42,0.86,0.86,0,0,1-.32.23l-1.74.88,1.32-3-0.41-.81-0.09,0a0.73,0.73,0,0,1,0,.76l-2.07,1.05a0.94,0.94,0,0,1-.37.12A0.51,0.51,0,0,1,604,403l-0.09,0,0.54,1,0.09,0-0.07-.1a0.51,0.51,0,0,1,0-.32,1,1,0,0,1,.33-0.22l1.84-.94-1.41,3.21,0,0.07,2.52-1.29A1,1,0,0,1,608.09,404.3Zm-5.38-8.64,2.56-.18,0,0.48a0.73,0.73,0,0,1,0,.34,0.43,0.43,0,0,1-.21.21,0.57,0.57,0,0,1-.29.1l0,0.08,0.77-.08-0.2-2.73h-0.78V394a0.87,0.87,0,0,1,.38.07,0.61,0.61,0,0,1,.18.22,1,1,0,0,1,.07.33V395l-2.55.18a0.63,0.63,0,0,1-.38,0,0.3,0.3,0,0,1-.13-0.28l0-.12h-0.09l0.11,1.42h0.09v-0.1a0.42,0.42,0,0,1,.06-0.32A0.91,0.91,0,0,1,602.71,395.66Zm0.79,4.91a1,1,0,0,1-.56-0.65,0.91,0.91,0,0,1,.13-0.8c0.49-.68,2.59-1.29,2.91,0S604.29,401,603.5,400.57Zm1.95-2.47a1.89,1.89,0,0,0-2.51.6,1.54,1.54,0,0,0-.17,1.25,1.78,1.78,0,0,0,3.22.37A1.59,1.59,0,0,0,605.45,398.09Z" transform="translate(-600.12 -370.27)"/><path class="st3" d="M624.21,371.26a23.1,23.1,0,1,1-23.1,23.1,23.15,23.15,0,0,1,23.1-23.1m0-1a24.09,24.09,0,1,1-24.09,24.09A24.14,24.14,0,0,1,624.21,370.27Z" transform="translate(-600.12 -370.27)"/><path class="st3" d="M624.21,377.63a16.75,16.75,0,1,1-16.75,16.75,16.78,16.78,0,0,1,16.75-16.75m0-.67a17.42,17.42,0,1,1-17.42,17.42A17.45,17.45,0,0,1,624.21,377Z" transform="translate(-600.12 -370.27)"/></svg>
